<svg width="20" height="20" viewBox="0 0 20 20" fill="none" xmlns="http://www.w3.org/2000/svg">
  <g id="harvester_hdmdqopyh9hc 1">
    <path
      id="Vector"
      d="M9.60285 8.57423L8.2382 3.36591H3.16406V5.70926H0V7.70184H1.17188V6.88114H3.16406V8.57423H9.60285Z"
      fill="white"
    />
    <path
      id="Vector_2"
      d="M10.6813 8.06688L11.6691 7.07919L12.4977 7.90782L11.8312 8.57423H14.8024L13.6866 4.53778H14.7656V3.36591H9.44961H9.44957L10.6813 8.06688Z"
      fill="white"
    />
    <path
      id="Vector_3"
      d="M2.46094 16.6341C3.49647 16.6341 4.33594 15.7946 4.33594 14.7591C4.33594 13.7236 3.49647 12.8841 2.46094 12.8841C1.4254 12.8841 0.585938 13.7236 0.585938 14.7591C0.585938 15.7946 1.4254 16.6341 2.46094 16.6341Z"
      fill="white"
    />
    <path
      id="Vector_4"
      d="M10.4557 16.6341C11.4913 16.6341 12.3307 15.7946 12.3307 14.7591C12.3307 13.7236 11.4913 12.8841 10.4557 12.8841C9.42021 12.8841 8.58074 13.7236 8.58074 14.7591C8.58074 15.7946 9.42021 16.6341 10.4557 16.6341Z"
      fill="white"
    />
    <path
      id="Vector_5"
      d="M15 11.1164V9.74609H0V12.9656C0.554688 12.2066 1.45098 11.7122 2.46094 11.7122C4.06645 11.7122 5.385 12.9607 5.49891 14.5377H7.41777C7.53168 12.9607 8.85019 11.7122 10.4557 11.7122C12.0613 11.7122 13.3798 12.9607 13.4937 14.5377H14.8124V16.6211H20V13.8279L15 11.1164Z"
      fill="white"
    />
  </g>
</svg>
