<svg width="20" height="20" viewBox="0 0 20 20" fill="none" xmlns="http://www.w3.org/2000/svg">
  <g id="bitcoin-svgrepo-com 1" clip-path="url(#clip0_14047_82)">
    <path
      id="Vector"
      d="M11.9052 12.0888C11.5679 13.4519 9.28164 12.7141 8.53204 12.5265L9.13172 10.1129C9.88131 10.3005 12.255 10.6631 11.9052 12.0888ZM9.95627 6.81141L9.40657 8.99988C10.0312 9.14995 11.9427 9.78774 12.255 8.54967C12.5674 7.26161 10.5809 6.96148 9.95627 6.81141ZM19.701 12.414C18.3643 17.7664 12.9422 21.0304 7.58255 19.7048C2.23542 18.3667 -1.03783 12.9392 0.298956 7.58673C1.63574 2.22179 7.05783 -1.02972 12.4175 0.295896C17.7646 1.63401 21.0378 7.06152 19.701 12.414ZM6.72051 11.6761C6.67054 11.8137 6.53311 12.0138 6.22078 11.9387C6.17081 11.9387 5.42121 11.7386 5.42121 11.7386L4.8715 12.9892L6.29574 13.3394C6.57059 13.4144 6.82046 13.4769 7.08282 13.552L6.63306 15.3653L7.71997 15.6404L8.16973 13.8396C8.46957 13.9272 8.75692 13.9897 9.04426 14.0647L8.5945 15.853L9.69391 16.1282L10.1437 14.3148C12.0177 14.665 13.4294 14.5274 14.0166 12.8266C14.4913 11.4635 13.9916 10.6757 13.0046 10.1629C13.7168 10.0003 14.254 9.52512 14.4039 8.54967C14.6038 7.2241 13.5918 6.49876 12.2051 6.03605L12.6548 4.22271L11.5554 3.94758L11.1181 5.69839C10.8308 5.62336 10.531 5.56083 10.2311 5.48579L10.6684 3.72248L9.58147 3.44735L9.13172 5.24818C8.89434 5.19816 8.65697 5.13563 8.43209 5.08561L6.9204 4.69793L6.63306 5.87347C6.63306 5.87347 7.43263 6.06106 7.43263 6.07357C7.86989 6.18612 7.94485 6.47375 7.94485 6.71136L6.70802 11.6511L6.72051 11.6761Z"
      fill="white"
    />
  </g>
  <defs>
    <clipPath id="clip0_14047_82">
      <rect width="20" height="20" fill="white" />
    </clipPath>
  </defs>
</svg>
