<svg width="16" height="16" viewBox="0 0 16 16" fill="none" xmlns="http://www.w3.org/2000/svg">
<path d="M12.5072 9.57005C12.7424 9.68765 12.86 9.88764 12.86 10.1699V12.4455V12.8512C12.86 13.0276 12.8071 13.1805 12.7012 13.3098C12.5954 13.4392 12.4601 13.5039 12.2955 13.5039H3.63396C3.48107 13.5039 3.35171 13.4392 3.24587 13.3098C3.14002 13.1805 3.0871 13.0276 3.0871 12.8512V12.4455V10.1699C3.0871 9.88764 3.2047 9.68768 3.43991 9.57005L5.87431 8.44105L6.8269 8.00004C6.38001 7.72955 6.03896 7.34146 5.80375 6.83576C5.5803 6.38886 5.46858 5.91257 5.46858 5.40687C5.46858 5.25399 5.48034 5.10698 5.50386 4.96586C5.52738 4.82473 5.55678 4.68949 5.59206 4.56012C5.75671 3.96035 6.05366 3.46641 6.48291 3.07832C6.91217 2.69022 7.40904 2.49618 7.97354 2.49618C8.54977 2.49618 9.0555 2.6961 9.49063 3.09596C9.92576 3.49581 10.2198 4.00151 10.3727 4.61305C10.4315 4.90706 10.4609 5.17166 10.4609 5.40687C10.4609 5.87729 10.3668 6.33006 10.1787 6.7652C9.94352 7.29441 9.60247 7.69427 9.15557 7.96476L10.1611 8.44105L12.5072 9.57005ZM3.0871 8.82911C2.82837 8.94672 2.62551 9.12615 2.4785 9.36715C2.3315 9.60827 2.25799 9.87579 2.25799 10.1699V12.4455H0.441014C0.31165 12.4455 0.205807 12.3955 0.123484 12.2956C0.0411613 12.1956 0 12.0692 0 11.9163V9.76412C0 9.50531 0.0940831 9.34072 0.282249 9.27016L3.01654 8.00004C2.68725 7.80011 2.42264 7.51492 2.22271 7.14447C2.02279 6.77402 1.92282 6.35946 1.92282 5.90081C1.92282 5.58328 1.97574 5.28045 2.08159 4.99232C2.18743 4.70419 2.3315 4.45428 2.51378 4.24259C2.69607 4.03091 2.90775 3.86332 3.14884 3.73984C3.38993 3.61635 3.6516 3.55461 3.93385 3.55461C4.12201 3.55461 4.29842 3.58401 4.46307 3.64281C4.62771 3.70162 4.78648 3.77806 4.93936 3.87214C4.73943 4.36608 4.63947 4.87766 4.63947 5.40687C4.63947 5.81849 4.69827 6.2154 4.81588 6.59761C4.93348 6.97982 5.09813 7.32381 5.30981 7.62958C5.18045 7.77071 5.0452 7.88243 4.90408 7.96476L3.0871 8.82911ZM15.7178 9.27016C15.9059 9.36424 16 9.52892 16 9.76412V11.9163C16 12.0691 15.9588 12.1955 15.8765 12.2955C15.7942 12.3955 15.6884 12.4454 15.5589 12.4454H13.689V10.1699C13.689 9.87582 13.6155 9.6083 13.4686 9.36709C13.3215 9.12609 13.1245 8.94666 12.8776 8.82906L11.1312 8.00004C10.9666 7.90595 10.8077 7.77071 10.6549 7.5943C10.8549 7.28853 11.0107 6.95042 11.1224 6.57997C11.2341 6.20952 11.29 5.81849 11.29 5.40687C11.29 5.13638 11.2664 4.87766 11.2194 4.63069C11.1724 4.38372 11.1018 4.14263 11.0077 3.90742C11.1606 3.80158 11.3253 3.71632 11.5017 3.65164C11.6781 3.58695 11.8604 3.55461 12.0486 3.55461C12.3309 3.55461 12.5955 3.61635 12.8423 3.73984C13.0893 3.86332 13.304 4.03091 13.4863 4.24259C13.6685 4.45428 13.8126 4.70419 13.9184 4.99232C14.0244 5.28045 14.0773 5.58328 14.0773 5.90081C14.0773 6.3477 13.9772 6.75638 13.7774 7.12683C13.5774 7.49728 13.3246 7.78247 13.0189 7.9824L15.7178 9.27016Z" fill="white"/>
</svg>
