<svg width="20" height="20" viewBox="0 0 20 20" fill="none" xmlns="http://www.w3.org/2000/svg">
  <path
    d="M17.4934 3.95962L14.0285 7.42449L11.5757 4.97166L15.0393 1.508C14.0695 1.04482 12.98 0.893323 11.9206 1.07432C10.8612 1.25532 9.88387 1.75994 9.12284 2.51883C8.47842 3.1647 8.01515 3.96867 7.7795 4.85008C7.54385 5.7315 7.54411 6.65939 7.78025 7.54067L1.76436 13.5566C0.745213 14.5757 0.745213 16.2166 1.76436 17.2358C2.78351 18.2549 4.42445 18.2549 5.4436 17.2358L11.4607 11.2187C12.3417 11.4548 13.2693 11.4551 14.1505 11.2197C15.0316 10.9842 15.8354 10.5213 16.4813 9.87732C17.2407 9.11633 17.7457 8.13881 17.9269 7.07915C18.1081 6.01949 17.9567 4.9297 17.4934 3.95962Z"
    fill="white"
  />
</svg>
