<svg width="20" height="20" viewBox="0 0 20 20" fill="none" xmlns="http://www.w3.org/2000/svg">
<g id="money-2-svgrepo-com 1">
<path id="Vector" d="M10 12.5C11.3807 12.5 12.5 11.3807 12.5 10C12.5 8.61925 11.3807 7.5 10 7.5C8.61925 7.5 7.5 8.61925 7.5 10C7.5 11.3807 8.61925 12.5 10 12.5Z" fill="white"/>
<path id="Vector_2" d="M14.1667 2.91666H5.83332C3.33332 2.91666 1.66666 4.16666 1.66666 7.08332V7.49999V12.5V12.9167C1.66666 15.8333 3.33332 17.0833 5.83332 17.0833H14.1667C16.6667 17.0833 18.3333 15.8333 18.3333 12.9167V12.5V7.49999V7.08332C18.3333 4.16666 16.6667 2.91666 14.1667 2.91666ZM5.83332 15.8333C5.83332 13.4833 5.07499 12.6167 2.91666 12.5167V12.5V7.49999V7.48332C5.07499 7.38332 5.83332 6.51666 5.83332 4.16666H14.1667C14.1667 6.51666 14.925 7.38332 17.0833 7.48332V7.49999V12.5V12.5167C14.925 12.6167 14.1667 13.4833 14.1667 15.8333H5.83332Z" fill="white"/>
</g>
</svg>
