<svg width="20" height="20" viewBox="0 0 20 20" fill="none" xmlns="http://www.w3.org/2000/svg">
  <g id="plane-svgrepo-com 1" clip-path="url(#clip0_14047_106)">
    <path
      id="Vector"
      d="M7.65625 5.44938L7.36313 5.74251L9.86313 5.95751L11.3669 4.45376C11.6012 4.21938 12.0312 3.86751 12.6562 3.47688C13.2812 3.08626 13.6912 2.96876 13.8475 3.12501C14.2775 3.55501 13.8475 4.39438 12.5581 5.66438L11.0737 7.14876L11.2887 9.64876L11.5819 9.37501C11.8162 9.12126 12.07 9.12126 12.2656 9.31626C12.5 9.55063 12.4025 9.88251 11.9337 10.3513L11.465 10.8394L11.6994 12.5194L12.0312 12.1675C12.2462 11.9331 12.4806 11.9331 12.6956 12.1281C12.93 12.3625 12.8912 12.6556 12.5781 12.9681L11.875 13.6713C12.1487 15.5463 12.1875 16.6013 11.9725 16.8156C11.875 16.8938 11.7381 16.9719 11.5425 17.0113C11.3669 17.0306 11.2106 17.0113 11.1125 16.9331C11.0344 16.8356 10.9169 16.4838 10.8 15.8781C10.6631 15.2531 10.3313 14.1981 9.745 12.7138C9.17875 11.21 8.76813 10.37 8.57313 10.155C8.495 10.0769 8.3775 10.0769 8.24125 10.155C8.10438 10.2138 7.61625 10.6238 6.835 11.3856C6.05375 12.1669 5.33125 12.7919 4.6475 13.28C4.62813 13.3975 4.68688 13.7881 4.78438 14.4325C4.88188 15.0769 4.92125 15.5069 4.90188 15.6631C4.8625 15.8194 4.70625 16.0344 4.4525 16.2881C4.31563 16.425 4.21813 16.5031 4.12063 16.5225C3.86688 16.2688 3.47625 15.4481 2.94875 14.1006C1.48375 13.4563 0.683126 13.0456 0.526876 12.8894C0.526876 12.8113 0.605001 12.6938 0.741876 12.5575C0.995626 12.3038 1.21063 12.1475 1.38625 12.1275C1.5425 12.0881 1.9525 12.1469 2.5975 12.2644C3.24188 12.3619 3.6325 12.4013 3.76938 12.4013C4.23813 11.6981 5.11688 10.6631 6.48438 9.29563C6.875 8.86563 6.9925 8.59251 6.85563 8.45563C6.66 8.24063 5.80063 7.85001 4.31625 7.28376C2.8125 6.71751 1.77688 6.34626 1.15188 6.22876C0.526876 6.09188 0.175001 5.99438 0.0968763 5.89688C-0.000623699 5.81876 -0.0206237 5.66251 0.0187513 5.46688C0.0381263 5.27126 0.116251 5.13501 0.214376 5.03688C0.410001 4.84126 1.46438 4.86126 3.35875 5.13438L4.0425 4.43126C4.355 4.13813 4.64813 4.09938 4.8825 4.33376C5.0975 4.52938 5.07813 4.76376 4.86313 4.97813L4.51125 5.31001L6.19125 5.54438L6.66 5.09501C7.12875 4.62626 7.46063 4.52876 7.695 4.76313C7.91 4.97813 7.89063 5.19313 7.65563 5.44688L7.65625 5.44938Z"
      fill="white"
    />
  </g>
  <defs>
    <clipPath id="clip0_14047_106">
      <rect width="20" height="20" fill="white" />
    </clipPath>
  </defs>
</svg>
