<svg width="20" height="20" viewBox="0 0 20 20" fill="none" xmlns="http://www.w3.org/2000/svg">
  <g id="shop-svgrepo-com 1" clip-path="url(#clip0_14047_98)">
    <g id="Group">
      <path
        id="Vector"
        fill-rule="evenodd"
        clip-rule="evenodd"
        d="M3.59539 0H16.5658C16.8701 0 17.1175 0.249023 17.1175 0.553385C17.1175 0.857747 16.8685 1.10677 16.5658 1.10677H3.59539C3.29103 1.10677 3.04363 0.857747 3.04363 0.553385C3.042 0.249023 3.29103 0 3.59539 0ZM19.5475 7.02637V7.69368C19.554 7.75716 19.5573 7.82064 19.5573 7.88411C19.5573 9.00391 18.5108 9.91211 17.2201 9.91211C15.9294 9.91211 14.8828 9.00391 14.8828 7.88411C14.8828 7.83691 14.8844 7.78809 14.8877 7.74089H14.7949C14.7982 7.78809 14.7998 7.83529 14.7998 7.88411C14.7998 9.00391 13.7533 9.91211 12.4626 9.91211C11.1719 9.91211 10.1253 9.00391 10.1253 7.88411C10.1253 7.83691 10.127 7.78809 10.1302 7.74089H10.0374C10.0407 7.78809 10.0423 7.83529 10.0423 7.88411C10.0423 9.00391 8.99578 9.91211 7.70509 9.91211C6.4144 9.91211 5.36785 9.00391 5.36785 7.88411C5.36785 7.83691 5.36948 7.78809 5.37273 7.74089H5.31414C5.31739 7.78809 5.31902 7.83529 5.31902 7.88411C5.31902 9.00391 4.27247 9.91211 2.98178 9.91211C1.69109 9.91211 0.644541 9.00391 0.644541 7.88411C0.644541 7.82878 0.647797 7.77506 0.652679 7.72135V7.02637H19.5475ZM2.98829 1.69922H17.2526L19.0706 5.58105H1.10353L2.98829 1.69922ZM0.799164 17.5798H2.77182V11.346C2.80437 11.3477 2.83692 11.3493 2.86948 11.3493H2.87761H2.91505H2.92156H2.92644H2.95248H2.95737H2.98015V11.3542H2.98178V11.3493C3.87371 11.3493 4.6989 11.0645 5.34181 10.5924L5.34669 10.5957L5.35157 10.599L5.35646 10.6022L5.36134 10.6055L5.36622 10.6087L5.3711 10.612L5.37273 10.6136L5.37599 10.6152L5.38087 10.6185L5.38575 10.6217L5.39064 10.625H5.39226L5.40854 10.6364L5.41342 10.6396L5.41505 10.6413L5.42319 10.6462L5.42807 10.6494L5.43295 10.6527L5.43458 10.6543L5.43784 10.6559L5.44272 10.6592L5.4476 10.6624L5.45248 10.6657L5.45574 10.6755L5.46062 10.6787L5.46388 10.682L5.46876 10.6852L5.47364 10.6885L5.47853 10.6917L5.48341 10.695L5.48829 10.6982L5.49317 10.7015H5.4948L5.53224 10.7259L5.53712 10.7292L5.542 10.7324L5.5713 10.752L5.57618 10.7552L5.61199 10.7764L5.6185 10.778L5.62338 10.7812L5.62827 10.7845L5.63315 10.7878L5.63803 10.791L5.64291 10.7943L5.6478 10.7975L5.65268 10.8008V14.8861H14.3408V10.8936C14.4808 10.8203 14.6175 10.7373 14.7461 10.6478L14.7494 10.6445H14.751L14.777 10.6266L14.7787 10.625L14.7868 10.6201L14.7949 10.6152L14.808 10.6055H14.8096L14.8112 10.6038L14.8389 10.5843C15.485 11.0645 16.3167 11.3542 17.2168 11.3542V11.359H17.2184V11.3542H17.2233V17.583H19.196C19.5003 17.583 19.7494 18.1266 19.7494 18.7923C19.7494 19.458 19.5003 20.0016 19.196 20.0016H0.799164C0.496429 20.0016 0.247406 19.458 0.247406 18.7923C0.247406 18.125 0.496429 17.5798 0.799164 17.5798Z"
        fill="white"
      />
    </g>
  </g>
  <defs>
    <clipPath id="clip0_14047_98">
      <rect width="20" height="20" fill="white" />
    </clipPath>
  </defs>
</svg>
