<svg width="20" height="20" viewBox="0 0 20 20" fill="none" xmlns="http://www.w3.org/2000/svg">
  <g id="taxi-svgrepo-com (1) 1" clip-path="url(#clip0_14047_110)">
    <g id="Group">
      <path
        id="Vector"
        d="M0 9.89609V12.0622C0 12.436 0.303038 12.739 0.67687 12.739H2.48762C2.82669 13.6332 3.69176 14.2707 4.70328 14.2707C5.71485 14.2707 6.57992 13.6332 6.91898 12.739H13.4422C13.7813 13.6332 14.6463 14.2707 15.6579 14.2707C16.6694 14.2707 17.5345 13.6332 17.8736 12.739H18.584C19.4297 12.739 19.843 12.3738 19.9467 12.031C20.2092 11.1633 19.4172 9.60003 19.405 9.58495C19.296 9.44926 19.1389 9.36081 18.9664 9.33793L14.7844 8.58009C14.7844 8.58009 12.4248 6.3244 11.0254 6.3244L10.1859 6.32471L9.97206 5.93268C9.90365 5.80731 9.77224 5.72931 9.62948 5.72931H7.77351C7.63066 5.72931 7.49925 5.80731 7.43089 5.93268L7.21648 6.32579L6.30966 6.32611C5.39537 6.32611 4.63127 7.02279 3.74652 7.82945C3.32963 8.20954 2.86933 8.62787 2.36166 8.9999L0.471062 9.25133C0.197927 9.33843 0 9.59404 0 9.89609ZM14.7554 11.9017C14.7554 11.4039 15.1602 10.9991 15.6579 10.9991C16.1556 10.9991 16.5604 11.4039 16.5604 11.9017C16.5604 12.3993 16.1556 12.8042 15.6579 12.8042C15.1602 12.8042 14.7554 12.3992 14.7554 11.9017ZM10.5269 10.5326H11.5807V9.4788H12.6345V10.5326H11.5807V11.5863H10.5269V10.5326ZM9.47312 9.47875H10.5269V10.5325H9.47312V9.47875ZM7.36554 9.47875H8.41931V10.5325H9.47312V11.5862H8.41931V10.5325H7.36554V9.47875ZM3.80079 11.9017C3.80079 11.4039 4.20569 10.9991 4.70332 10.9991C5.201 10.9991 5.60586 11.4039 5.60586 11.9017C5.60586 12.3993 5.201 12.8042 4.70332 12.8042C4.20569 12.8041 3.80079 12.3992 3.80079 11.9017Z"
        fill="white"
      />
    </g>
  </g>
  <defs>
    <clipPath id="clip0_14047_110">
      <rect width="20" height="20" fill="white" />
    </clipPath>
  </defs>
</svg>
