<svg width="38" height="40" viewBox="0 0 38 40" fill="none" xmlns="http://www.w3.org/2000/svg">
<path d="M36.2039 7.04688H1.79609C0.883203 7.04688 0.148438 7.82813 0.148438 8.78906V31.2188C0.148438 32.1797 0.883203 32.9531 1.79609 32.9531H36.2039C37.1168 32.9531 37.8516 32.1797 37.8516 31.2188V8.78906C37.8516 7.82813 37.1168 7.04688 36.2039 7.04688Z" fill="#666666"/>
<path d="M36.2039 31.8203H1.79609C0.883203 31.8203 0.148438 31.0391 0.148438 30.0781V31.2109C0.148438 32.1719 0.883203 32.9453 1.79609 32.9453H36.2039C37.1168 32.9453 37.8516 32.1719 37.8516 31.2109V30.0781C37.8516 31.0391 37.1168 31.8203 36.2039 31.8203Z" fill="#3F3F3F"/>
<path d="M3.71826 12.8906H5.74443V14.7969H3.71826V12.8906Z" fill="#FBD984"/>
<path d="M8.33447 12.2734H10.3606V11.3281C10.3606 10.7891 9.94502 10.3516 9.43291 10.3516H8.33447V12.2734Z" fill="#FBD984"/>
<path d="M6.33838 10.3438H7.74111V17.3359H6.33838V10.3438Z" fill="#FBD984"/>
<path d="M8.33447 15.4141V17.3359H9.43291C9.94502 17.3359 10.3606 16.8984 10.3606 16.3594V15.4141H8.33447Z" fill="#FBD984"/>
<path d="M8.33447 12.8906H10.3606V14.7969H8.33447V12.8906Z" fill="#FBD984"/>
<path d="M5.74443 15.4141H3.71826V16.3594C3.71826 16.8984 4.13389 17.3359 4.646 17.3359H5.74443V15.4141Z" fill="#FBD984"/>
<path d="M5.74443 12.2736V10.3517H4.646C4.13389 10.3517 3.71826 10.7892 3.71826 11.3283V12.2736H5.74443Z" fill="#FBD984"/>
<path d="M3.71826 23.2344H15.905V24.7734H3.71826V23.2344Z" fill="#3F3F3F"/>
<path d="M21.4268 11.3125H33.6135V12.8516H21.4268V11.3125Z" fill="#EFF3F5"/>
<path d="M3.71826 27.6641H11.296V29.2031H3.71826V27.6641Z" fill="#3F3F3F"/>
<path d="M26.2808 27.6641H33.8585V29.2031H26.2808V27.6641Z" fill="#3F3F3F"/>
</svg>
