<svg width="35" height="35" viewBox="0 0 35 35" fill="none" xmlns="http://www.w3.org/2000/svg">
<g clip-path="url(#clip0_15564_813)">
<path d="M17.5 0C7.82776 0 0 7.82688 0 17.5C0 27.1721 7.82688 35 17.5 35C27.1722 35 35 27.1731 35 17.5C35 7.8279 27.1731 0 17.5 0ZM17.5 32.5581C9.19693 32.5581 2.44187 25.8031 2.44187 17.5C2.44187 9.19687 9.19693 2.44187 17.5 2.44187C25.8031 2.44187 32.5581 9.19687 32.5581 17.5C32.5581 25.8031 25.8031 32.5581 17.5 32.5581Z" fill="#5B5B5B"/>
<path d="M17.5005 14.5877C16.4639 14.5877 15.7268 15.0254 15.7268 15.6704V24.4468C15.7268 24.9997 16.4639 25.5525 17.5005 25.5525C18.4911 25.5525 19.2972 24.9997 19.2972 24.4468V15.6703C19.2972 15.0254 18.4911 14.5877 17.5005 14.5877Z" fill="#5B5B5B"/>
<path d="M17.5004 9.17438C16.4408 9.17438 15.6116 9.93453 15.6116 10.8099C15.6116 11.6853 16.4408 12.4685 17.5004 12.4685C18.537 12.4685 19.3663 11.6853 19.3663 10.8099C19.3663 9.93453 18.5369 9.17438 17.5004 9.17438Z" fill="#5B5B5B"/>
</g>
<defs>
<clipPath id="clip0_15564_813">
<rect width="35" height="35" fill="white"/>
</clipPath>
</defs>
</svg>
