<svg width="31" height="30" viewBox="0 0 31 30" fill="none" xmlns="http://www.w3.org/2000/svg">
<g clip-path="url(#clip0_15564_1172)">
<path d="M18.3337 15.0902C22.6397 15.0902 26.1304 11.7122 26.1304 7.54512C26.1304 3.37806 22.6397 0 18.3337 0C14.0278 0 10.5371 3.37806 10.5371 7.54512C10.5371 11.7122 14.0278 15.0902 18.3337 15.0902Z" fill="#FFBD3D"/>
<path d="M24.2592 7.54514C24.2592 7.73616 24.2495 7.92541 24.2301 8.11116C24.201 8.40295 24.1484 8.6883 24.0751 8.96545C23.9776 9.33577 23.842 9.69143 23.6737 10.0289C23.5435 10.2908 23.3927 10.5416 23.2244 10.7789C23.0034 11.0912 22.7515 11.3813 22.4724 11.6444C22.2587 11.8471 22.0298 12.0334 21.7864 12.2028C21.471 12.4225 21.1325 12.6129 20.7753 12.7699C20.5046 12.8889 20.2237 12.9885 19.9331 13.067C19.5625 13.1684 19.1769 13.2346 18.7809 13.2633C18.6331 13.2744 18.4842 13.2797 18.3334 13.2797C18.1827 13.2797 18.0337 13.2744 17.886 13.2633C17.49 13.2346 17.1043 13.1684 16.7338 13.067C16.4432 12.9885 16.1622 12.8889 15.8916 12.7699C15.5344 12.6129 15.1959 12.4225 14.8804 12.2028C14.6371 12.0334 14.4082 11.8471 14.1945 11.6444C13.9153 11.3813 13.6635 11.0912 13.4425 10.7789C13.2735 10.5416 13.1234 10.2908 12.9926 10.0289V10.0283C12.8243 9.69143 12.6893 9.33577 12.5918 8.96545C12.5185 8.6883 12.4658 8.40295 12.4368 8.11116C12.4174 7.92541 12.4077 7.73616 12.4077 7.54514C12.4077 7.35413 12.4174 7.16545 12.4368 6.97913C12.4658 6.68733 12.5185 6.40198 12.5918 6.12483C12.6893 5.7551 12.8243 5.39944 12.9926 5.06194V5.06135C13.1234 4.79944 13.2735 4.54924 13.4425 4.31135C13.6629 3.99963 13.9147 3.70959 14.1938 3.44651C14.4076 3.24377 14.6364 3.05745 14.8798 2.88811C15.1953 2.66838 15.5344 2.47795 15.8916 2.32092C16.1622 2.20198 16.4432 2.10237 16.7338 2.02385C17.1043 1.92249 17.49 1.85627 17.886 1.82756C18.0337 1.81643 18.1827 1.81116 18.3334 1.81116C18.4842 1.81116 18.6331 1.81643 18.7809 1.82756C19.1769 1.85627 19.5625 1.92249 19.9331 2.02385C20.2237 2.10237 20.5046 2.20198 20.7753 2.32092C21.1325 2.47795 21.4716 2.66838 21.787 2.88811C22.0304 3.05745 22.2593 3.24377 22.473 3.44651C22.7515 3.70959 23.0034 3.99963 23.2244 4.31135C23.3933 4.54924 23.5435 4.80002 23.6743 5.06194C23.8426 5.39944 23.9776 5.7551 24.0751 6.12483C24.1484 6.40198 24.201 6.68733 24.2301 6.97913C24.2495 7.16545 24.2592 7.35413 24.2592 7.54514Z" fill="#FFCB70"/>
<path d="M7.79662 26.6472C12.1026 26.6472 15.5932 23.2692 15.5932 19.1021C15.5932 14.9351 12.1026 11.557 7.79662 11.557C3.49067 11.557 0 14.9351 0 19.1021C0 23.2692 3.49067 26.6472 7.79662 26.6472Z" fill="#FFBD3D"/>
<path d="M13.7224 19.1021C13.7224 19.2931 13.7127 19.4818 13.6934 19.6681C13.6643 19.9599 13.6116 20.2453 13.5384 20.5224C13.4409 20.8922 13.3059 21.2478 13.1375 21.5853C13.0068 21.8472 12.8566 22.098 12.6877 22.3359C12.4673 22.6476 12.2154 22.9377 11.9363 23.2008C11.7226 23.4035 11.4931 23.5904 11.2497 23.7597C10.9348 23.9795 10.5964 24.1693 10.2392 24.3269C9.96852 24.4453 9.68697 24.5455 9.39695 24.624C9.0258 24.7254 8.64072 24.7916 8.24414 24.8203C8.09641 24.8314 7.94746 24.8367 7.7967 24.8367C7.64594 24.8367 7.49699 24.8314 7.34926 24.8203C6.95268 24.7916 6.5676 24.7248 6.19644 24.624C5.90643 24.5455 5.62549 24.4459 5.35484 24.3269C4.99762 24.1699 4.65916 23.9795 4.34371 23.7597C4.10031 23.5904 3.87084 23.4035 3.65711 23.2008C3.37859 22.9377 3.12672 22.6476 2.90572 22.3359C2.7374 22.098 2.58725 21.8478 2.45646 21.5859V21.5853C2.28814 21.2478 2.15313 20.8922 2.05564 20.5224C1.98238 20.2453 1.92971 19.9599 1.90064 19.6681C1.88127 19.4818 1.87158 19.2931 1.87158 19.1021C1.87158 18.9111 1.88127 18.7224 1.90064 18.5361C1.92971 18.2443 1.98238 17.959 2.05564 17.6818C2.15313 17.3121 2.28814 16.9564 2.45646 16.6189V16.6183C2.58725 16.3564 2.7374 16.1062 2.90572 15.8683C3.12672 15.5566 3.37859 15.2666 3.65711 15.0035C3.87084 14.8008 4.09971 14.6144 4.34311 14.4451C4.65855 14.2254 4.99762 14.0344 5.35484 13.8773C5.62549 13.7584 5.90643 13.6588 6.19644 13.5802C6.5676 13.4795 6.95268 13.4127 7.34926 13.384C7.49699 13.3728 7.64594 13.3676 7.7967 13.3676C7.94746 13.3676 8.09641 13.3728 8.24414 13.384C8.64072 13.4127 9.0258 13.4789 9.39695 13.5802C9.68697 13.6588 9.96852 13.759 10.2392 13.8773C10.5964 14.0349 10.9348 14.2254 11.2503 14.4451C11.4937 14.6144 11.7226 14.8008 11.9363 15.0035C12.2154 15.2666 12.4673 15.5566 12.6877 15.8683C12.8566 16.1062 13.0068 16.357 13.1375 16.6189C13.3059 16.9564 13.4409 17.3121 13.5384 17.6818C13.6116 17.959 13.6643 18.2443 13.6934 18.5361C13.7127 18.7224 13.7224 18.9111 13.7224 19.1021Z" fill="#FFCB70"/>
<path d="M23.2034 30C27.5093 30 31 26.622 31 22.4549C31 18.2879 27.5093 14.9098 23.2034 14.9098C18.8974 14.9098 15.4067 18.2879 15.4067 22.4549C15.4067 26.622 18.8974 30 23.2034 30Z" fill="#FFBD3D"/>
<path d="M29.1287 22.4549C29.1287 22.6459 29.119 22.8346 29.0996 23.0209C29.0705 23.3127 29.0179 23.5975 28.9446 23.8746C28.8471 24.2449 28.7121 24.6006 28.5438 24.9381V24.9387L28.0945 25.6887C27.8735 26.0004 27.6217 26.2905 27.3431 26.5535C27.1294 26.7563 26.8999 26.9432 26.6565 27.1125C26.3411 27.3323 26.002 27.5227 25.6448 27.6791C25.3748 27.7981 25.0938 27.8977 24.8038 27.9762C24.4327 28.0776 24.0476 28.1438 23.651 28.1725C23.5033 28.1836 23.3543 28.1889 23.2036 28.1889C23.0528 28.1889 22.9038 28.1836 22.7561 28.1725C22.3595 28.1438 21.9745 28.0776 21.6033 27.9762C21.3133 27.8977 21.0317 27.7981 20.7617 27.6791C20.4045 27.5221 20.066 27.3323 19.7506 27.1125C19.5072 26.9432 19.2777 26.7563 19.064 26.5535C18.7848 26.2905 18.533 26.0004 18.3126 25.6887C18.1437 25.4508 17.9935 25.2 17.8627 24.9381C17.6944 24.6006 17.5594 24.2449 17.4619 23.8746C17.3886 23.5975 17.336 23.3127 17.3069 23.0209C17.2875 22.8346 17.2778 22.6459 17.2778 22.4549C17.2778 22.2639 17.2875 22.0746 17.3069 21.8889C17.336 21.5971 17.3886 21.3117 17.4619 21.0346C17.5594 20.6643 17.6944 20.3086 17.8627 19.9717C17.9935 19.7098 18.1437 19.459 18.3126 19.2211C18.5336 18.9088 18.7854 18.6188 19.0646 18.3557C19.2777 18.1535 19.5072 17.9666 19.75 17.7979C20.0654 17.5782 20.4039 17.3877 20.7611 17.2301C21.0317 17.1117 21.3133 17.0115 21.6033 16.933C21.9745 16.8317 22.3595 16.7655 22.7561 16.7367C22.9038 16.7256 23.0528 16.7203 23.2036 16.7203C23.3543 16.7203 23.5033 16.7256 23.651 16.7367C24.047 16.7655 24.4327 16.8317 24.8032 16.933C25.0938 17.0115 25.3748 17.1112 25.6454 17.2301C26.0026 17.3871 26.3411 17.5776 26.6565 17.7973C26.8999 17.9666 27.1288 18.153 27.3425 18.3557C27.6211 18.6188 27.8735 18.9088 28.0945 19.2211C28.2629 19.4584 28.413 19.7092 28.5438 19.9711V19.9717C28.7121 20.3086 28.8471 20.6643 28.9446 21.0346C29.0179 21.3117 29.0705 21.5971 29.0996 21.8889C29.119 22.0746 29.1287 22.2639 29.1287 22.4549Z" fill="#FFCB70"/>
<path d="M20.0933 6.39757V6.39077C20.0933 5.66931 19.5931 5.05905 18.9108 4.86686V4.66284C18.9108 4.42009 18.7076 4.22339 18.4567 4.22339C18.2059 4.22339 18.0026 4.42009 18.0026 4.66284V4.80353H17.7283V4.66284C17.7283 4.42009 17.5251 4.22339 17.2742 4.22339C17.0234 4.22339 16.8201 4.42009 16.8201 4.66284V4.80353H16.6606C16.4098 4.80353 16.2065 5.00022 16.2065 5.24298C16.2065 5.48573 16.4098 5.68243 16.6606 5.68243H16.8201V7.5453V9.40817H16.6606C16.4098 9.40817 16.2065 9.60487 16.2065 9.84763C16.2065 10.0904 16.4098 10.2871 16.6606 10.2871H16.8201V10.4278C16.8201 10.6706 17.0234 10.8673 17.2742 10.8673C17.5251 10.8673 17.7283 10.6706 17.7283 10.4278V10.2871H18.0026V10.4278C18.0026 10.6706 18.2059 10.8673 18.4567 10.8673C18.7076 10.8673 18.9108 10.6706 18.9108 10.4278V10.2237C19.5931 10.0315 20.0933 9.4213 20.0933 8.69983V8.6931C20.0933 8.24198 19.8975 7.83458 19.5843 7.5453C19.8975 7.25603 20.0933 6.84862 20.0933 6.39757ZM19.1851 8.69304V8.69978C19.1851 9.09036 18.8567 9.40812 18.4532 9.40812H17.7283V7.9847H18.4532C18.8567 7.9847 19.1851 8.30245 19.1851 8.69304ZM17.7283 7.10579V5.68237H18.4533C18.8568 5.68237 19.1851 6.00013 19.1851 6.39071V6.39751C19.1851 6.78804 18.8568 7.10579 18.4533 7.10579H17.7283Z" fill="#FE9400"/>
<path d="M18.7876 1.89905V2.30862C18.7876 2.5512 18.5842 2.74807 18.3335 2.74807C18.0828 2.74807 17.8794 2.5512 17.8794 2.30862V1.89905C17.8794 1.87444 17.8812 1.851 17.8861 1.82756C18.0338 1.81643 18.1827 1.81116 18.3335 1.81116C18.4843 1.81116 18.6332 1.81643 18.7809 1.82756C18.7858 1.851 18.7876 1.87444 18.7876 1.89905Z" fill="#FE9400"/>
<path d="M18.7876 12.7822V13.1918C18.7876 13.2164 18.7858 13.2398 18.7809 13.2633C18.6332 13.2744 18.4843 13.2797 18.3335 13.2797C18.1827 13.2797 18.0338 13.2744 17.8861 13.2633C17.8812 13.2398 17.8794 13.2164 17.8794 13.1918V12.7822C17.8794 12.5391 18.0828 12.3428 18.3335 12.3428C18.5842 12.3428 18.7876 12.5391 18.7876 12.7822Z" fill="#FE9400"/>
<path d="M16.6381 3.03754C16.5867 3.05511 16.534 3.0639 16.4825 3.0639C16.2973 3.0639 16.1229 2.95316 16.0557 2.77445L15.911 2.38949C15.9025 2.36664 15.8958 2.34379 15.8916 2.32094C16.1622 2.20199 16.4432 2.10238 16.7338 2.02386C16.7459 2.04437 16.7562 2.06605 16.7647 2.0889L16.9094 2.47386C16.9954 2.70238 16.8737 2.95433 16.6381 3.03754Z" fill="#FE9400"/>
<path d="M20.7754 12.77C20.5047 12.8889 20.2238 12.9885 19.9332 13.067C19.921 13.0465 19.9108 13.0243 19.9023 13.0014L19.7576 12.6165C19.6716 12.3885 19.7933 12.1366 20.0288 12.0534C20.265 11.9702 20.5253 12.0879 20.6113 12.3159L20.756 12.7008C20.7645 12.7237 20.7711 12.7471 20.7754 12.77Z" fill="#FE9400"/>
<path d="M15.1469 3.87015C15.0621 3.93929 14.9586 3.97328 14.855 3.97328C14.7255 3.97328 14.5971 3.91996 14.5069 3.81625L14.235 3.50218C14.2193 3.48461 14.206 3.46586 14.1938 3.44652C14.4076 3.24379 14.6364 3.05746 14.8798 2.88812C14.898 2.90219 14.915 2.91918 14.9307 2.93734L15.2032 3.2514C15.3642 3.43715 15.3388 3.71429 15.1469 3.87015Z" fill="#FE9400"/>
<path d="M22.4723 11.6443C22.2586 11.8471 22.0297 12.0334 21.7863 12.2027C21.7682 12.1875 21.7518 12.1711 21.7361 12.1529L21.4636 11.8395C21.3026 11.6531 21.3274 11.376 21.5199 11.2201C21.7118 11.0643 21.9982 11.0883 22.1593 11.2746L22.4318 11.5881C22.4475 11.6063 22.4608 11.625 22.4723 11.6443Z" fill="#FE9400"/>
<path d="M14.0401 5.14689C13.956 5.28751 13.8034 5.36661 13.6466 5.36661C13.5697 5.36661 13.4916 5.34728 13.4201 5.30743L13.0532 5.10236C13.0314 5.09005 13.0114 5.07657 12.9927 5.06193V5.06134C13.1235 4.79943 13.2736 4.54923 13.4425 4.31134C13.4643 4.31954 13.4861 4.3295 13.5073 4.34122L13.8742 4.5463C14.0916 4.66759 14.1655 4.93654 14.0401 5.14689Z" fill="#FE9400"/>
<path d="M23.6737 10.0289C23.5436 10.2908 23.3928 10.5416 23.2245 10.7789C23.2021 10.7707 23.1803 10.7608 23.1591 10.749L22.7928 10.5445C22.5754 10.4227 22.5009 10.1543 22.6263 9.94396C22.7516 9.7336 23.0295 9.66153 23.2469 9.78282L23.6132 9.9879C23.635 10.0002 23.655 10.0137 23.6737 10.0289Z" fill="#FE9400"/>
<path d="M13.4513 6.71193C13.4125 6.92521 13.2206 7.07521 13.0045 7.07521C12.9784 7.07521 12.9518 7.07345 12.9251 7.06876L12.508 6.99728C12.4831 6.99318 12.4595 6.98732 12.4365 6.97911C12.4656 6.68732 12.5183 6.40197 12.5915 6.12482C12.6157 6.1254 12.6412 6.12716 12.666 6.13185L13.0826 6.20333C13.3296 6.24552 13.4949 6.47345 13.4513 6.71193Z" fill="#FE9400"/>
<path d="M24.2303 8.11118C24.2012 8.40298 24.1485 8.68833 24.0753 8.96548C24.051 8.96489 24.0256 8.96313 24.0008 8.95845L23.5836 8.88755C23.3366 8.84536 23.1719 8.61743 23.2155 8.37837C23.2591 8.13931 23.4946 7.97935 23.7416 8.02212L24.1582 8.09302C24.183 8.09712 24.2072 8.10356 24.2303 8.11118Z" fill="#FE9400"/>
<path d="M13.0832 8.88755L12.666 8.95845C12.6412 8.96313 12.6157 8.96489 12.5915 8.96548C12.5183 8.68833 12.4656 8.40298 12.4365 8.11118C12.4595 8.10356 12.4831 8.09712 12.508 8.09302L12.9251 8.02212C13.1722 7.97935 13.4077 8.13931 13.4513 8.37837C13.4949 8.61743 13.3296 8.84536 13.0832 8.88755Z" fill="#FE9400"/>
<path d="M24.2303 6.97911C24.2072 6.98673 24.183 6.99318 24.1582 6.99728L23.7416 7.06876C23.715 7.07345 23.6884 7.07521 23.6623 7.07521C23.4462 7.07521 23.2542 6.92521 23.2155 6.71193C23.1719 6.47345 23.3366 6.24552 23.5836 6.20333L24.0008 6.13185C24.0256 6.12716 24.051 6.1254 24.0753 6.12482C24.1485 6.40197 24.2012 6.68732 24.2303 6.97911Z" fill="#FE9400"/>
<path d="M13.8742 10.5445L13.5073 10.749C13.4861 10.7607 13.4643 10.7707 13.4425 10.7789C13.2736 10.5416 13.1235 10.2908 12.9927 10.0289V10.0283C13.0114 10.0137 13.0314 10.0002 13.0532 9.98789L13.4201 9.78281C13.6369 9.6621 13.9148 9.73359 14.0401 9.94394C14.1655 10.1543 14.0916 10.4227 13.8742 10.5445Z" fill="#FE9400"/>
<path d="M23.6743 5.06193C23.6556 5.07657 23.6356 5.09005 23.6138 5.10236L23.2469 5.30743C23.1754 5.34728 23.0973 5.36661 23.0204 5.36661C22.863 5.36661 22.7104 5.28751 22.6263 5.14689C22.5009 4.93654 22.5754 4.66759 22.7928 4.5463L23.1591 4.34122C23.1803 4.3295 23.2021 4.31954 23.2245 4.31134C23.3934 4.54923 23.5436 4.80001 23.6743 5.06193Z" fill="#FE9400"/>
<path d="M15.203 11.8395L14.9306 12.1535C14.9148 12.1717 14.8985 12.1881 14.8803 12.2027C14.6369 12.0334 14.4081 11.8471 14.1943 11.6443C14.2058 11.625 14.2192 11.6063 14.2349 11.5881L14.5068 11.2746C14.6684 11.0883 14.9548 11.0643 15.1467 11.2201C15.3387 11.376 15.3641 11.6531 15.203 11.8395Z" fill="#FE9400"/>
<path d="M22.4729 3.44652C22.4608 3.46586 22.4475 3.48461 22.4318 3.50218L22.1593 3.81625C22.0697 3.91996 21.9407 3.97328 21.8111 3.97328C21.7082 3.97328 21.6047 3.93929 21.5199 3.87015C21.3274 3.71429 21.3026 3.43715 21.4636 3.2514L21.7361 2.93734C21.7518 2.91918 21.7688 2.90219 21.7869 2.88812C22.0303 3.05746 22.2592 3.24379 22.4729 3.44652Z" fill="#FE9400"/>
<path d="M16.9094 12.6165L16.7647 13.0014C16.7562 13.0243 16.7459 13.0465 16.7338 13.067C16.4432 12.9885 16.1622 12.8889 15.8916 12.77C15.8958 12.7471 15.9025 12.7237 15.911 12.7008L16.0557 12.3159C16.1417 12.0879 16.402 11.9702 16.6381 12.0534C16.8737 12.1366 16.9954 12.3885 16.9094 12.6165Z" fill="#FE9400"/>
<path d="M20.7754 2.32094C20.7711 2.34379 20.7645 2.36722 20.756 2.38949L20.6113 2.77445C20.5441 2.95316 20.3697 3.0639 20.1844 3.0639C20.1324 3.0639 20.0803 3.05511 20.0288 3.03754C19.7933 2.95433 19.6716 2.70238 19.7576 2.47386L19.9023 2.0889C19.9108 2.06605 19.921 2.04437 19.9332 2.02386C20.2238 2.10238 20.5047 2.20199 20.7754 2.32094Z" fill="#FE9400"/>
<path d="M8.25049 13.4555V13.8657C8.25049 14.1082 8.04705 14.3051 7.79639 14.3051C7.54572 14.3051 7.34229 14.1082 7.34229 13.8657V13.4555C7.34229 13.4309 7.3441 13.4075 7.34895 13.384C7.49668 13.3729 7.64563 13.3676 7.79639 13.3676C7.94715 13.3676 8.09609 13.3729 8.24383 13.384C8.24867 13.4075 8.25049 13.4309 8.25049 13.4555Z" fill="#FE9400"/>
<path d="M8.25049 24.3387V24.7488C8.25049 24.7734 8.24867 24.7969 8.24383 24.8203C8.09609 24.8315 7.94715 24.8367 7.79639 24.8367C7.64563 24.8367 7.49668 24.8315 7.34895 24.8203C7.3441 24.7969 7.34229 24.7734 7.34229 24.7488V24.3387C7.34229 24.0961 7.54572 23.8992 7.79639 23.8992C8.04705 23.8992 8.25049 24.0961 8.25049 24.3387Z" fill="#FE9400"/>
<path d="M6.10103 14.594C6.04957 14.6122 5.9975 14.6209 5.94603 14.6209C5.76016 14.6209 5.58639 14.5102 5.51918 14.3315L5.37447 13.9465C5.366 13.9237 5.35934 13.9002 5.35449 13.8774C5.62514 13.7584 5.90607 13.6588 6.19609 13.5803C6.2082 13.6014 6.2191 13.6231 6.22758 13.6459L6.37228 14.0309C6.45826 14.2588 6.33656 14.5114 6.10103 14.594Z" fill="#FE9400"/>
<path d="M10.2391 24.327C9.96846 24.4453 9.68691 24.5455 9.3969 24.6241C9.38479 24.6035 9.37389 24.5813 9.36541 24.5584L9.2207 24.1735C9.13533 23.9455 9.25643 23.693 9.49256 23.6104C9.72809 23.5272 9.98844 23.645 10.0744 23.8729L10.2191 24.2578C10.2276 24.2807 10.2343 24.3041 10.2391 24.327Z" fill="#FE9400"/>
<path d="M4.60975 15.4272C4.52498 15.4963 4.42145 15.5297 4.31852 15.5297C4.18895 15.5297 4.05998 15.4764 3.97037 15.3733L3.69791 15.0592C3.68217 15.0416 3.66885 15.0229 3.65674 15.0035C3.87047 14.8008 4.09934 14.6145 4.34273 14.4451C4.3609 14.4592 4.37785 14.4762 4.39359 14.4943L4.66605 14.8078C4.82711 14.9942 4.80229 15.2713 4.60975 15.4272Z" fill="#FE9400"/>
<path d="M11.936 23.2008C11.7223 23.4036 11.4928 23.5905 11.2494 23.7598C11.2312 23.7446 11.2149 23.7282 11.1991 23.71L10.9273 23.3965C10.7656 23.2102 10.7911 22.933 10.983 22.7772C11.1749 22.6213 11.4613 22.6454 11.623 22.8311L11.8948 23.1452C11.9106 23.1627 11.9239 23.1815 11.936 23.2008Z" fill="#FE9400"/>
<path d="M3.50352 16.7034C3.41936 16.8446 3.26678 16.9231 3.10996 16.9231C3.03246 16.9231 2.95436 16.9043 2.88291 16.8645L2.5166 16.6594C2.4948 16.6471 2.47482 16.6336 2.45605 16.619V16.6184C2.58684 16.3565 2.73699 16.1063 2.90531 15.8684C2.92771 15.8766 2.94951 15.8866 2.9707 15.8983L3.33701 16.1034C3.55437 16.2247 3.62885 16.4936 3.50352 16.7034Z" fill="#FE9400"/>
<path d="M13.1371 21.5854C13.0064 21.8473 12.8562 22.0981 12.6873 22.336C12.6655 22.3278 12.6437 22.3178 12.6225 22.3061L12.2556 22.101C12.0388 21.9797 11.9643 21.7114 12.0897 21.501C12.215 21.2907 12.4929 21.2186 12.7097 21.3399L13.0766 21.545C13.0984 21.5573 13.1184 21.5708 13.1371 21.5854Z" fill="#FE9400"/>
<path d="M2.91455 18.269C2.8758 18.4823 2.68447 18.6323 2.46771 18.6323C2.44168 18.6323 2.41504 18.6299 2.3884 18.6258L1.97184 18.5543C1.94701 18.5502 1.9234 18.5438 1.90039 18.5362C1.92945 18.2444 1.98213 17.959 2.05539 17.6819C2.07961 17.6825 2.10443 17.6848 2.12926 17.6889L2.54643 17.7598C2.79346 17.802 2.95814 18.0299 2.91455 18.269Z" fill="#FE9400"/>
<path d="M13.6931 19.6682C13.6641 19.96 13.6114 20.2453 13.5381 20.5225C13.5139 20.5219 13.4885 20.5201 13.4637 20.5154L13.0471 20.4445C12.8001 20.4024 12.6348 20.1744 12.6784 19.9354C12.722 19.6963 12.9575 19.5363 13.2045 19.5785L13.6217 19.65C13.6465 19.6541 13.6701 19.6606 13.6931 19.6682Z" fill="#FE9400"/>
<path d="M2.54643 20.4445L2.12926 20.5154C2.10443 20.5195 2.07961 20.5219 2.05539 20.5225C1.98213 20.2453 1.92945 19.96 1.90039 19.6682C1.9234 19.6606 1.94701 19.6541 1.97184 19.65L2.3884 19.5785C2.63543 19.5363 2.87096 19.6963 2.91455 19.9354C2.95814 20.1744 2.79346 20.4024 2.54643 20.4445Z" fill="#FE9400"/>
<path d="M13.6931 18.5362C13.6701 18.5438 13.6465 18.5502 13.6217 18.5543L13.2045 18.6258C13.1779 18.6299 13.1512 18.6323 13.1252 18.6323C12.909 18.6323 12.7171 18.4823 12.6784 18.269C12.6348 18.0299 12.8001 17.802 13.0471 17.7598L13.4637 17.6889C13.4885 17.6842 13.5139 17.6825 13.5381 17.6819C13.6114 17.959 13.6641 18.2444 13.6931 18.5362Z" fill="#FE9400"/>
<path d="M3.33701 22.101L2.9707 22.3061C2.94951 22.3178 2.92771 22.3278 2.90531 22.336C2.73699 22.0981 2.58684 21.8479 2.45605 21.586V21.5854C2.47482 21.5708 2.4948 21.5573 2.5166 21.545L2.88291 21.3399C3.10027 21.2186 3.37818 21.2907 3.50352 21.501C3.62885 21.7108 3.55437 21.9797 3.33701 22.101Z" fill="#FE9400"/>
<path d="M13.1371 16.619C13.1184 16.6336 13.0984 16.6471 13.0766 16.6594L12.7097 16.8645C12.6382 16.9043 12.5601 16.9231 12.4832 16.9231C12.3264 16.9231 12.1738 16.8446 12.0897 16.7034C11.9643 16.4936 12.0388 16.2247 12.2556 16.1034L12.6225 15.8983C12.6437 15.8866 12.6655 15.8766 12.6873 15.8684C12.8562 16.1063 13.0064 16.3571 13.1371 16.619Z" fill="#FE9400"/>
<path d="M4.66605 23.3965L4.39359 23.71C4.37785 23.7282 4.3615 23.7446 4.34334 23.7598C4.09994 23.5905 3.87047 23.4036 3.65674 23.2008C3.66885 23.1815 3.68217 23.1627 3.69791 23.1452L3.97037 22.8311C4.13143 22.6453 4.41781 22.6207 4.60975 22.7772C4.80229 22.933 4.82711 23.2102 4.66605 23.3965Z" fill="#FE9400"/>
<path d="M11.936 15.0035C11.9239 15.0229 11.9106 15.0416 11.8948 15.0592L11.623 15.3733C11.5328 15.4764 11.4044 15.5297 11.2748 15.5297C11.1719 15.5297 11.0684 15.4963 10.983 15.4272C10.7911 15.2713 10.7656 14.9942 10.9273 14.8078L11.1991 14.4943C11.2149 14.4762 11.2318 14.4592 11.25 14.4451C11.4934 14.6145 11.7223 14.8008 11.936 15.0035Z" fill="#FE9400"/>
<path d="M6.37228 24.1735L6.22758 24.5584C6.2191 24.5813 6.2082 24.6035 6.19609 24.6241C5.90607 24.5455 5.62514 24.4459 5.35449 24.327C5.35934 24.3041 5.366 24.2807 5.37447 24.2578L5.51918 23.8729C5.60455 23.645 5.86551 23.5272 6.10103 23.6104C6.33656 23.693 6.45826 23.9455 6.37228 24.1735Z" fill="#FE9400"/>
<path d="M10.2391 13.8774C10.2343 13.9002 10.2276 13.9237 10.2191 13.9465L10.0744 14.3315C10.0072 14.5102 9.83284 14.6209 9.64757 14.6209C9.5961 14.6209 9.54343 14.6122 9.49196 14.594C9.25643 14.5114 9.13534 14.2588 9.22071 14.0309L9.36542 13.6459C9.37389 13.6231 9.38479 13.6014 9.3969 13.5803C9.68692 13.6588 9.96846 13.759 10.2391 13.8774Z" fill="#FE9400"/>
<path d="M23.6572 16.8082V17.2178C23.6572 17.461 23.4538 17.6573 23.2031 17.6573C22.9519 17.6573 22.749 17.461 22.749 17.2178V16.8082C22.749 16.7836 22.7508 16.7602 22.7557 16.7367C22.9034 16.7256 23.0524 16.7203 23.2031 16.7203C23.3539 16.7203 23.5028 16.7256 23.6506 16.7367C23.6554 16.7602 23.6572 16.7836 23.6572 16.8082Z" fill="#FE9400"/>
<path d="M23.6572 27.6914V28.101C23.6572 28.1256 23.6554 28.149 23.6506 28.1725C23.5028 28.1836 23.3539 28.1889 23.2031 28.1889C23.0524 28.1889 22.9034 28.1836 22.7557 28.1725C22.7508 28.149 22.749 28.1256 22.749 28.101V27.6914C22.749 27.4488 22.9519 27.252 23.2031 27.252C23.4538 27.252 23.6572 27.4488 23.6572 27.6914Z" fill="#FE9400"/>
<path d="M21.5073 17.9467C21.4564 17.9649 21.4037 17.9737 21.3523 17.9737C21.167 17.9737 20.9926 17.8623 20.9254 17.6842L20.7807 17.2993C20.7722 17.2764 20.7656 17.253 20.7607 17.2301C21.0314 17.1118 21.3129 17.0116 21.6029 16.933C21.6151 16.9536 21.626 16.9758 21.6344 16.9987L21.7791 17.3836C21.8645 17.6116 21.7434 17.8635 21.5073 17.9467Z" fill="#FE9400"/>
<path d="M25.6444 27.6791C25.3743 27.798 25.0934 27.8977 24.8034 27.9762C24.7913 27.9557 24.7804 27.934 24.7719 27.9111L24.6272 27.5262C24.5412 27.2977 24.6629 27.0457 24.8985 26.9625C25.134 26.8799 25.3949 26.9971 25.4803 27.2256L25.625 27.6105C25.6335 27.6334 25.6401 27.6562 25.6444 27.6791Z" fill="#FE9400"/>
<path d="M20.0169 18.7799C19.9315 18.849 19.8279 18.8824 19.725 18.8824C19.5954 18.8824 19.4671 18.8291 19.3769 18.7254L19.105 18.4119C19.0893 18.3938 19.076 18.375 19.0645 18.3557C19.2776 18.1535 19.5071 17.9666 19.7498 17.7979C19.768 17.8119 19.785 17.8289 19.8007 17.8471L20.0726 18.1605C20.2342 18.3469 20.2088 18.624 20.0169 18.7799Z" fill="#FE9400"/>
<path d="M27.3426 26.5535C27.1289 26.7563 26.8994 26.9432 26.656 27.1125C26.6378 27.0973 26.6215 27.0809 26.6057 27.0627L26.3333 26.7487C26.1722 26.5629 26.1971 26.2858 26.389 26.1299C26.5815 25.9741 26.8679 25.9981 27.029 26.1838L27.3014 26.4979C27.3172 26.5155 27.3305 26.5342 27.3426 26.5535Z" fill="#FE9400"/>
<path d="M18.9098 20.0561C18.8256 20.1973 18.673 20.2758 18.5162 20.2758C18.4393 20.2758 18.3612 20.2571 18.2898 20.2172L17.9229 20.0121C17.9011 19.9998 17.8811 19.9864 17.8623 19.9717C17.9931 19.7098 18.1432 19.459 18.3122 19.2211C18.334 19.2293 18.3558 19.2393 18.377 19.251L18.7439 19.4555C18.9606 19.5774 19.0351 19.8457 18.9098 20.0561Z" fill="#FE9400"/>
<path d="M28.5434 24.9381V24.9387L28.0941 25.6887C28.0717 25.6805 28.0499 25.6705 28.0287 25.6588L27.6624 25.4537C27.445 25.3324 27.3706 25.0635 27.4959 24.8531C27.6212 24.6434 27.8991 24.5713 28.1165 24.6926L28.4828 24.8977C28.5046 24.91 28.5246 24.9234 28.5434 24.9381Z" fill="#FE9400"/>
<path d="M18.3214 21.6217C18.2827 21.835 18.0907 21.985 17.8746 21.985C17.8485 21.985 17.8219 21.9827 17.7953 21.978L17.3781 21.9071C17.3533 21.903 17.3296 21.8965 17.3066 21.8889C17.3357 21.5971 17.3884 21.3118 17.4616 21.0346C17.4859 21.0352 17.5107 21.0375 17.5361 21.0416L17.9527 21.1125C18.1997 21.1547 18.365 21.3827 18.3214 21.6217Z" fill="#FE9400"/>
<path d="M29.0993 23.0209C29.0702 23.3127 29.0175 23.5975 28.9443 23.8746C28.9201 23.874 28.8952 23.8723 28.8704 23.8682L28.4532 23.7967C28.2062 23.7545 28.0415 23.5266 28.0851 23.2881C28.1287 23.049 28.3642 22.8891 28.6113 22.9312L29.0278 23.0027C29.0527 23.0068 29.0763 23.0127 29.0993 23.0209Z" fill="#FE9400"/>
<path d="M17.9527 23.7967L17.5361 23.8682C17.5113 23.8723 17.4859 23.874 17.4616 23.8746C17.3884 23.5975 17.3357 23.3127 17.3066 23.0209C17.3296 23.0127 17.3533 23.0068 17.3781 23.0027L17.7953 22.9312C18.0423 22.8891 18.2778 23.049 18.3214 23.2881C18.365 23.5266 18.1997 23.7545 17.9527 23.7967Z" fill="#FE9400"/>
<path d="M29.0993 21.8889C29.0763 21.8965 29.0527 21.903 29.0278 21.9071L28.6113 21.978C28.5846 21.9827 28.558 21.985 28.532 21.985C28.3152 21.985 28.1239 21.835 28.0851 21.6217C28.0415 21.3827 28.2062 21.1547 28.4532 21.1125L28.8704 21.0416C28.8952 21.0375 28.9201 21.0352 28.9443 21.0346C29.0175 21.3118 29.0702 21.5971 29.0993 21.8889Z" fill="#FE9400"/>
<path d="M18.7439 25.4537L18.377 25.6588C18.3558 25.6705 18.334 25.6805 18.3122 25.6887C18.1432 25.4508 17.9931 25.2 17.8623 24.9381C17.8811 24.9234 17.9011 24.91 17.9229 24.8977L18.2898 24.6926C18.5071 24.5713 18.7844 24.6434 18.9098 24.8531C19.0351 25.0635 18.9612 25.3324 18.7439 25.4537Z" fill="#FE9400"/>
<path d="M28.5434 19.9711V19.9717C28.5246 19.9864 28.5046 19.9998 28.4828 20.0121L28.1165 20.2172C28.0451 20.2571 27.967 20.2758 27.8895 20.2758C27.7326 20.2758 27.5801 20.1973 27.4959 20.0561C27.3706 19.8457 27.445 19.5774 27.6624 19.4555L28.0287 19.251C28.0499 19.2393 28.0717 19.2293 28.0941 19.2211C28.2624 19.4584 28.4126 19.7092 28.5434 19.9711Z" fill="#FE9400"/>
<path d="M20.0722 26.7487L19.8003 27.0627C19.7846 27.0809 19.7682 27.0973 19.7501 27.1125C19.5067 26.9432 19.2772 26.7563 19.0635 26.5535C19.0756 26.5342 19.0889 26.5155 19.1046 26.4979L19.3765 26.1838C19.5376 25.9981 19.8239 25.9735 20.0165 26.1299C20.2084 26.2858 20.2338 26.5629 20.0722 26.7487Z" fill="#FE9400"/>
<path d="M27.342 18.3557C27.3305 18.375 27.3172 18.3938 27.3014 18.412L27.029 18.7254C26.9394 18.8291 26.8104 18.8825 26.6808 18.8825C26.5779 18.8825 26.4744 18.8491 26.389 18.7799C26.1971 18.6235 26.1722 18.3463 26.3333 18.1606L26.6057 17.8465C26.6215 17.8284 26.6378 17.812 26.656 17.7973C26.8994 17.9666 27.1283 18.153 27.342 18.3557Z" fill="#FE9400"/>
<path d="M21.779 27.5262L21.6343 27.9111C21.6258 27.934 21.6149 27.9557 21.6028 27.9762C21.3128 27.8977 21.0313 27.798 20.7612 27.6791C20.7655 27.6562 20.7721 27.6334 20.7806 27.6105L20.9253 27.2256C21.0113 26.9971 21.2716 26.8799 21.5072 26.9625C21.7433 27.0457 21.8644 27.2977 21.779 27.5262Z" fill="#FE9400"/>
<path d="M25.645 17.2301C25.6402 17.253 25.6335 17.2764 25.625 17.2993L25.4803 17.6842C25.4131 17.8623 25.2393 17.9737 25.0535 17.9737C25.002 17.9737 24.9499 17.9649 24.8985 17.9467C24.6629 17.8635 24.5412 17.6116 24.6272 17.3836L24.7719 16.9987C24.7804 16.9758 24.7907 16.9536 24.8028 16.933C25.0934 17.0116 25.3743 17.1112 25.645 17.2301Z" fill="#FE9400"/>
<path d="M25.0367 24.0902H23.087V22.7739C23.2503 22.7348 23.4327 22.6915 23.6368 22.6434C23.8805 22.5861 24.0301 22.3485 23.9708 22.1126C23.9116 21.8768 23.6661 21.7319 23.4223 21.7893C23.3033 21.8173 23.192 21.8436 23.087 21.8686V20.0114C23.087 19.7687 22.8838 19.572 22.6329 19.572C22.3821 19.572 22.1788 19.7687 22.1788 20.0114V22.0887C21.7685 22.1907 21.6188 22.2328 21.6089 22.2357C21.3682 22.3038 21.2303 22.5477 21.3005 22.7806C21.3584 22.9724 21.5396 23.097 21.7363 23.097C21.7783 23.097 21.8211 23.0912 21.8636 23.0793C21.8654 23.0787 21.9538 23.054 22.1788 22.9968V24.5295C22.1788 24.7723 22.3821 24.969 22.6329 24.969H25.0367C25.2875 24.969 25.4908 24.7723 25.4908 24.5295C25.4908 24.2868 25.2874 24.0902 25.0367 24.0902Z" fill="#FE9400"/>
<path d="M9.62868 19.0979L7.83116 18.6671C7.80852 18.6616 7.78485 18.6616 7.76214 18.6671L5.96463 19.0979C5.83941 19.1279 5.74 18.9952 5.80848 18.8893L7.67495 16.0036C7.7312 15.9167 7.86204 15.9167 7.91829 16.0036L9.78477 18.8893C9.85331 18.9952 9.75395 19.1279 9.62868 19.0979Z" fill="#FE9400"/>
<path d="M6.14205 19.7012L7.74067 19.0106C7.77633 18.9952 7.81714 18.9952 7.8528 19.0106L9.45142 19.7012C9.53637 19.7379 9.55998 19.8439 9.49816 19.9112L7.89954 21.6517C7.84481 21.7113 7.74866 21.7113 7.69393 21.6517L6.09531 19.9112C6.03355 19.8439 6.0571 19.7379 6.14205 19.7012Z" fill="#FE9400"/>
</g>
<defs>
<clipPath id="clip0_15564_1172">
<rect width="31" height="30" fill="white"/>
</clipPath>
</defs>
</svg>
