<svg width="55" height="55" viewBox="0 0 55 55" fill="none" xmlns="http://www.w3.org/2000/svg">
<g clip-path="url(#clip0_15564_1105)">
<path d="M9.96145 48.7205V45.8879C9.96145 44.8016 9.30032 44.0937 8.21516 44.0937C7.64522 44.0937 7.03539 44.2829 6.61022 44.8916C6.27966 44.3718 5.81231 44.0937 5.09989 44.0937C4.83501 44.0823 4.57142 44.1367 4.33272 44.252C4.09401 44.3674 3.88763 44.5402 3.73204 44.7548V44.1849H2.83496V48.717H3.73204V46.1238C3.73204 45.3259 4.20395 44.9441 4.86507 44.9441C5.5262 44.9441 5.9035 45.3692 5.9035 46.1238V48.7205H6.80058V46.1238C6.80058 45.3259 7.27249 44.9441 7.93361 44.9441C8.59474 44.9441 8.97204 45.3692 8.97204 46.1238V48.7205H9.96145ZM24.6909 44.2351H23.0381V42.8672H22.1433V44.2351H21.1995V45.033H22.1433V47.1623C22.1433 48.2007 22.5206 48.8151 23.6536 48.8151C24.0828 48.8061 24.5034 48.6927 24.879 48.4845L24.5951 47.6866C24.3404 47.8458 24.0451 47.9277 23.7448 47.9225C23.2729 47.9225 23.0369 47.6387 23.0369 47.1668V44.9965H24.6897V44.2408L24.6909 44.2351ZM33.094 44.0937C32.8497 44.0883 32.6081 44.1463 32.3929 44.2622C32.1777 44.3781 31.9963 44.5478 31.8664 44.7548V44.1849H30.9693V48.717H31.8664V46.1717C31.8664 45.416 32.2437 44.9441 32.8581 44.9441C33.0654 44.9525 33.2711 44.9842 33.4713 45.0387L33.7551 44.1883C33.5387 44.1338 33.3171 44.102 33.094 44.0937ZM20.3947 44.5656C19.9228 44.2351 19.2617 44.0937 18.5538 44.0937C17.4208 44.0937 16.7129 44.6135 16.7129 45.5106C16.7129 46.2663 17.2327 46.6903 18.2232 46.8328L18.6952 46.8796C19.2149 46.9742 19.5455 47.1634 19.5455 47.3993C19.5455 47.7299 19.1682 47.9693 18.4592 47.9693C17.9178 47.9804 17.3876 47.8147 16.9489 47.4974L16.477 48.2052C17.1381 48.6771 17.9406 48.7752 18.4147 48.7752C19.737 48.7752 20.4449 48.1619 20.4449 47.3116C20.4449 46.5137 19.8749 46.1318 18.8866 45.9893L18.4147 45.9426C17.9896 45.8959 17.6168 45.7534 17.6168 45.4707C17.6168 45.1401 17.9941 44.9007 18.5139 44.9007C19.0838 44.9007 19.6469 45.1367 19.9308 45.278L20.3947 44.5656ZM34.0857 46.4544C34.0857 47.8222 34.9828 48.8151 36.4464 48.8151C37.1075 48.8151 37.5794 48.6737 38.0513 48.2953L37.5794 47.5874C37.2453 47.858 36.8296 48.0078 36.3997 48.0126C35.6017 48.0126 34.9828 47.3993 34.9828 46.5023C34.9828 45.6052 35.5938 44.9965 36.3997 44.9965C36.8296 45.0013 37.2453 45.1511 37.5794 45.4217L38.0513 44.7138C37.5794 44.3365 37.1075 44.194 36.4464 44.194C35.0295 44.0994 34.0857 45.0911 34.0857 46.4601V46.4544ZM27.7594 44.0937C26.4372 44.0937 25.5401 45.0375 25.5401 46.4544C25.5401 47.8713 26.4839 48.8151 27.8529 48.8151C28.5189 48.8291 29.1693 48.6125 29.6938 48.2018L29.2219 47.5407C28.8425 47.8346 28.3793 47.9999 27.8996 48.0126C27.2864 48.0126 26.6252 47.6353 26.5318 46.8328H29.8841V46.4555C29.8841 45.0387 29.0338 44.0949 27.7594 44.0949V44.0937ZM27.7127 44.9441C28.3738 44.9441 28.8457 45.3692 28.8925 46.0771H26.4383C26.5796 45.416 27.0082 44.9441 27.7127 44.9441ZM15.4853 46.4544V44.1883H14.5882V44.7583C14.2576 44.3331 13.7903 44.0971 13.1246 44.0971C11.8502 44.0971 10.9053 45.0888 10.9053 46.4578C10.9053 47.8268 11.8491 48.8185 13.1246 48.8185C13.7857 48.8185 14.2576 48.5825 14.5882 48.1574V48.7273H15.4853V46.4544ZM11.8502 46.4544C11.8502 45.604 12.37 44.9441 13.2671 44.9441C14.1174 44.9441 14.6349 45.6052 14.6349 46.4544C14.6349 47.3515 14.065 47.9647 13.2671 47.9647C12.37 48.0115 11.8502 47.3036 11.8502 46.4544ZM46.7394 44.0937C46.4951 44.0883 46.2535 44.1463 46.0383 44.2622C45.8232 44.3781 45.6417 44.5478 45.5118 44.7548V44.1849H44.6147V48.717H45.5107V46.1717C45.5107 45.416 45.888 44.9441 46.5023 44.9441C46.7097 44.9525 46.9154 44.9842 47.1156 45.0387L47.3994 44.1883C47.183 44.1338 46.9614 44.102 46.7383 44.0937H46.7394ZM43.2457 46.4544V44.1883H42.3487V44.7583C42.0181 44.3331 41.5507 44.0971 40.8851 44.0971C39.6107 44.0971 38.6657 45.0888 38.6657 46.4578C38.6657 47.8268 39.6095 48.8185 40.8851 48.8185C41.5462 48.8185 42.0181 48.5825 42.3487 48.1574V48.7273H43.2457V46.4544ZM39.6107 46.4544C39.6107 45.604 40.1305 44.9441 41.0275 44.9441C41.8779 44.9441 42.3954 45.6052 42.3954 46.4544C42.3954 47.3515 41.8254 47.9647 41.0275 47.9647C40.1305 48.0115 39.6107 47.3036 39.6107 46.4544ZM52.3579 46.4544V42.3942H51.4608V44.7548C51.1302 44.3297 50.6629 44.0937 49.9972 44.0937C48.7228 44.0937 47.7779 45.0854 47.7779 46.4544C47.7779 47.8234 48.7217 48.8151 49.9972 48.8151C50.6583 48.8151 51.1302 48.5791 51.4608 48.1539V48.7239H52.3579V46.4544ZM48.7228 46.4544C48.7228 45.604 49.2426 44.9441 50.1397 44.9441C50.99 44.9441 51.5075 45.6052 51.5075 46.4544C51.5075 47.3515 50.9376 47.9647 50.1397 47.9647C49.2415 48.0126 48.7217 47.3047 48.7217 46.4544H48.7228Z" fill="white"/>
<path d="M35.7382 9.81888H19.356V36.5398H35.7382V9.81888Z" fill="#FF5F00"/>
<path d="M21.009 23.1793C21.0095 20.6088 21.5916 18.0716 22.7117 15.7579C23.8317 13.4442 25.4607 11.4138 27.4766 9.81887C24.9695 7.84771 21.9584 6.62172 18.7875 6.28106C15.6166 5.94039 12.4138 6.4988 9.54519 7.89244C6.67662 9.28609 4.25806 11.4587 2.56598 14.162C0.873892 16.8653 -0.0234375 19.9901 -0.0234375 23.1793C-0.0234375 26.3685 0.873892 29.4933 2.56598 32.1966C4.25806 34.8999 6.67662 37.0726 9.54519 38.4662C12.4138 39.8598 15.6166 40.4182 18.7875 40.0776C21.9584 39.7369 24.9695 38.5109 27.4766 36.5398C25.4607 34.9448 23.8317 32.9145 22.7117 30.6007C21.5916 28.287 21.0095 25.7499 21.009 23.1793Z" fill="#EB001B"/>
<path d="M55.0012 23.1793C55.0035 26.3662 54.1089 29.4894 52.4195 32.1916C50.7302 34.8939 48.3145 37.0662 45.4486 38.46C42.5827 39.8538 39.3824 40.4129 36.2136 40.0734C33.0449 39.7338 30.0357 38.5092 27.5303 36.5398C29.5467 34.9452 31.176 32.915 32.2961 30.6011C33.4162 28.2873 33.9981 25.75 33.9981 23.1793C33.9981 20.6086 33.4162 18.0713 32.2961 15.7575C31.176 13.4437 29.5467 11.4134 27.5303 9.81887C30.0357 7.84941 33.0449 6.62486 36.2136 6.28527C39.3824 5.94569 42.5827 6.50478 45.4486 7.89861C48.3145 9.29243 50.7302 11.4647 52.4195 14.167C54.1089 16.8693 55.0035 19.9925 55.0012 23.1793Z" fill="#F79E1B"/>
</g>
<defs>
<clipPath id="clip0_15564_1105">
<rect width="55" height="55" fill="white"/>
</clipPath>
</defs>
</svg>
