<svg width="56" height="17" viewBox="0 0 56 17" fill="none" xmlns="http://www.w3.org/2000/svg">
<path d="M4.33984 1.84166H8.95984C9.37984 1.84166 10.6398 1.69999 11.1998 3.68333C11.6198 4.95833 12.1798 6.94166 13.0198 9.91666H13.2998C14.1398 6.79999 14.8398 4.67499 15.1198 3.68333C15.6798 1.69999 17.0798 1.84166 17.6398 1.84166H21.9798V15.4417H17.4998V7.36666H17.2198L14.8398 15.4417H11.4798L9.09984 7.36666H8.67984V15.4417H4.33984M23.7998 1.84166H28.2798V9.91666H28.6998L31.6398 3.25833C32.1998 1.98333 33.4598 1.84166 33.4598 1.84166H37.6598V15.4417H33.1798V7.36666H32.8998L29.9598 14.025C29.3998 15.3 27.9998 15.4417 27.9998 15.4417H23.7998M43.6798 11.3333V15.4417H39.4798V8.35833H53.1998C52.6398 10.0583 50.6798 11.3333 48.4398 11.3333" fill="#0F754E"/>
<path d="M53.4802 7.50834C54.0402 4.95834 52.3602 1.84167 48.7202 1.84167H39.2002C39.4802 4.81667 42.0002 7.50834 44.6602 7.50834" fill="url(#paint0_linear_15564_1119)"/>
<defs>
<linearGradient id="paint0_linear_15564_1119" x1="51.8002" y1="8.25723e-06" x2="40.6002" y2="8.25723e-06" gradientUnits="userSpaceOnUse">
<stop stop-color="#1F5CD7"/>
<stop offset="1" stop-color="#02AEFF"/>
</linearGradient>
</defs>
</svg>
