<svg width="31" height="32" viewBox="0 0 31 32" fill="none" xmlns="http://www.w3.org/2000/svg">
<g clip-path="url(#clip0_15564_1265)">
<path d="M0.860496 20.5302C2.74625 27.0208 8.57854 31.7538 15.4801 31.7538C23.9088 31.7538 30.7416 24.7006 30.7416 16C30.7416 7.29945 23.9088 0.246155 15.4801 0.246155C7.39243 0.246155 0.774173 6.74117 0.251465 14.9534C1.2406 16.6651 1.62453 17.7241 0.859542 20.5302H0.860496Z" fill="url(#paint0_linear_15564_1265)"/>
<path d="M14.6938 12.0541L14.6952 12.1319L10.9609 17.7319C10.3561 17.7034 9.7495 17.8132 9.17338 18.0578C8.92258 18.163 8.68313 18.295 8.45895 18.4517L0.258253 14.9627C0.258253 14.9627 0.0684373 18.1853 0.859176 20.5868L6.65665 23.0562C6.94281 24.3993 7.83942 25.5769 9.15668 26.143C10.193 26.5875 11.3579 26.5892 12.3954 26.1478C13.433 25.7064 14.2584 24.858 14.6904 23.7888C14.9209 23.2193 15.0321 22.6059 15.0166 21.9889L20.3548 18.048L20.486 18.0505C23.6838 18.0505 26.283 15.3595 26.283 12.0541C26.283 8.74879 23.6885 6.06768 20.486 6.06079C17.2897 6.06079 14.689 8.74879 14.689 12.0541H14.6938ZM13.7971 23.4018C13.1037 25.1249 11.1903 25.9357 9.52725 25.2204C8.78927 24.9003 8.19109 24.3112 7.84658 23.5653L9.73376 24.3727C10.0253 24.4979 10.3379 24.5627 10.6537 24.5632C10.9694 24.5637 11.2822 24.5 11.5741 24.3757C11.8661 24.2514 12.1314 24.0689 12.355 23.8387C12.5785 23.6085 12.756 23.3351 12.8772 23.0341C13.1225 22.4259 13.124 21.742 12.8812 21.1326C12.6384 20.5233 12.1712 20.0384 11.5823 19.7844L9.62693 18.9499C10.3795 18.6545 11.2351 18.6447 12.0354 18.9878C12.8462 19.3339 13.4662 19.9857 13.7981 20.8192C14.13 21.6527 14.1281 22.5718 13.7933 23.4018M20.4912 16.0492C19.4666 16.0464 18.4847 15.6244 17.7608 14.8758C17.0369 14.1271 16.63 13.1129 16.6291 12.0551C16.6302 10.9976 17.0373 9.98354 17.7612 9.23513C18.485 8.48671 19.4667 8.06489 20.4912 8.06202C21.5159 8.06463 22.4978 8.48634 23.2219 9.23478C23.946 9.98322 24.3532 10.9974 24.3543 12.0551C24.3534 13.113 23.9463 14.1275 23.2222 14.8761C22.4981 15.6248 21.5161 16.0466 20.4912 16.0492ZM17.5973 12.0487C17.5966 11.254 17.9017 10.4915 18.4454 9.92886C18.9892 9.36621 19.7271 9.04942 20.497 9.04811C22.097 9.04811 23.3986 10.3921 23.3986 12.0487C23.3989 12.8436 23.0935 13.6062 22.5494 14.1687C22.0053 14.7312 21.267 15.0476 20.497 15.0484C19.7271 15.0472 18.9893 14.7306 18.4455 14.1681C17.9017 13.6057 17.5969 12.8434 17.5973 12.0487Z" fill="white"/>
</g>
<defs>
<linearGradient id="paint0_linear_15564_1265" x1="15.4965" y1="0.246155" x2="15.4965" y2="31.7538" gradientUnits="userSpaceOnUse">
<stop stop-color="#07133F"/>
<stop offset="1" stop-color="#1387B8"/>
</linearGradient>
<clipPath id="clip0_15564_1265">
<rect width="31" height="32" fill="white"/>
</clipPath>
</defs>
</svg>
