<svg width="35" height="35" viewBox="0 0 35 35" fill="none" xmlns="http://www.w3.org/2000/svg">
<g clip-path="url(#clip0_15564_836)">
<path d="M17.5 2.91666C14.4058 2.91666 11.4383 4.14582 9.25042 6.33374C7.0625 8.52167 5.83333 11.4891 5.83333 14.5833V17.3542C5.3934 17.7375 5.03694 18.2071 4.78608 18.7339C4.53521 19.2608 4.39529 19.8335 4.375 20.4167C4.40822 21.2623 4.69611 22.0781 5.20095 22.7573C5.70578 23.4365 6.40402 23.9473 7.20417 24.2229C9.1 28.7583 12.9062 32.0833 17.5 32.0833H21.875V29.1667H17.5C14.2042 29.1667 11.2146 26.6875 9.7125 22.7646L9.40625 21.9625L8.54583 21.875C8.19543 21.8255 7.87499 21.6502 7.64424 21.3819C7.41349 21.1136 7.28818 20.7705 7.29167 20.4167C7.2932 20.1622 7.36132 19.9125 7.48923 19.6925C7.61715 19.4724 7.80042 19.2897 8.02083 19.1625L8.75 18.7396V16.0417C8.75 15.6549 8.90365 15.2839 9.17714 15.0105C9.45063 14.737 9.82156 14.5833 10.2083 14.5833H24.7917C25.1784 14.5833 25.5494 14.737 25.8229 15.0105C26.0964 15.2839 26.25 15.6549 26.25 16.0417V23.3333H20.2854C20.153 22.9621 19.9228 22.6335 19.619 22.3823C19.3153 22.1311 18.9493 21.9667 18.5598 21.9064C18.1703 21.846 17.7717 21.8921 17.4062 22.0396C17.0407 22.1871 16.7219 22.4306 16.4834 22.7445C16.2449 23.0583 16.0956 23.4307 16.0514 23.8223C16.0071 24.214 16.0694 24.6103 16.2319 24.9695C16.3943 25.3286 16.6507 25.6372 16.974 25.8626C17.2974 26.088 17.6756 26.2218 18.0687 26.25H29.1667C29.9402 26.25 30.6821 25.9427 31.2291 25.3957C31.776 24.8487 32.0833 24.1069 32.0833 23.3333V20.4167C32.0833 19.6431 31.776 18.9012 31.2291 18.3543C30.6821 17.8073 29.9402 17.5 29.1667 17.5V14.5833C29.1667 11.4891 27.9375 8.52167 25.7496 6.33374C23.5617 4.14582 20.5942 2.91666 17.5 2.91666Z" fill="#5B5B5B"/>
</g>
<defs>
<clipPath id="clip0_15564_836">
<rect width="35" height="35" fill="white"/>
</clipPath>
</defs>
</svg>
