<svg width="56" height="18" viewBox="0 0 56 18" fill="none" xmlns="http://www.w3.org/2000/svg">
<g clip-path="url(#clip0_15564_1112)">
<path d="M24.2664 17.7403H19.73L22.5674 0.315826H27.1035L24.2664 17.7403Z" fill="#00579F"/>
<path d="M40.7115 0.741829C39.8167 0.38927 38.3975 0 36.6427 0C32.1628 0 29.0082 2.37257 28.9888 5.76463C28.9516 8.26729 31.2475 9.65732 32.9646 10.4918C34.7197 11.3445 35.3163 11.901 35.3163 12.6611C35.2984 13.8284 33.8981 14.3665 32.592 14.3665C30.7809 14.3665 29.8104 14.0891 28.3357 13.4396L27.7383 13.1612L27.1035 17.0727C28.1675 17.5541 30.1277 17.9813 32.1628 18C36.9227 18 40.0216 15.6641 40.0583 12.0494C40.0764 10.0658 38.8641 8.54594 36.2505 7.30397C34.6638 6.50671 33.6922 5.96912 33.6922 5.15338C33.7108 4.4118 34.514 3.65223 36.305 3.65223C37.7798 3.61503 38.8634 3.9671 39.6842 4.31941L40.0945 4.50444L40.7115 0.741829Z" fill="#00579F"/>
<path d="M46.7407 11.5674C47.1143 10.5664 48.5518 6.6922 48.5518 6.6922C48.533 6.72941 48.9247 5.67271 49.1487 5.02401L49.4657 6.52541C49.4657 6.52541 50.3248 10.6963 50.5113 11.5674C49.8024 11.5674 47.6367 11.5674 46.7407 11.5674ZM52.3403 0.315826H48.8314C47.7494 0.315826 46.9273 0.630691 46.4604 1.76154L39.7222 17.7401H44.4821C44.4821 17.7401 45.2657 15.5895 45.4341 15.1263C45.9563 15.1263 50.5867 15.1263 51.2585 15.1263C51.3887 15.738 51.7998 17.7401 51.7998 17.7401H56L52.3403 0.315826Z" fill="#00579F"/>
<path d="M15.9412 0.315826L11.4985 12.1977L11.0131 9.78788C10.1917 7.00731 7.61581 3.98629 4.74121 2.48415L8.81049 17.7218H13.6076L20.738 0.315826H15.9412Z" fill="#00579F"/>
<path d="M7.37328 0.315826H0.0746677L0 0.667893C5.69337 2.11386 9.46398 5.59929 11.0132 9.78862L9.42653 1.78051C9.16531 0.667647 8.36257 0.352536 7.37328 0.315826Z" fill="#FAA61A"/>
</g>
<defs>
<clipPath id="clip0_15564_1112">
<rect width="56" height="18" fill="white"/>
</clipPath>
</defs>
</svg>
