<svg width="20" height="20" viewBox="0 0 20 20" fill="none" xmlns="http://www.w3.org/2000/svg">
<g id="court-svgrepo-com 1">
<path id="Vector" d="M11.9116 15.4968C11.911 15.6293 11.8582 15.7561 11.7645 15.8498C11.6709 15.9434 11.544 15.9963 11.4116 15.9968H3.61369C3.48125 15.9963 3.35439 15.9434 3.26074 15.8498C3.1671 15.7561 3.11424 15.6293 3.11369 15.4968V14.5884C3.11424 14.456 3.1671 14.3291 3.26074 14.2355C3.35439 14.1418 3.48125 14.089 3.61369 14.0884H11.4116C11.5441 14.0887 11.6711 14.1415 11.7648 14.2352C11.8585 14.3289 11.9113 14.4559 11.9116 14.5884V15.4968ZM8.99895 12.7737C8.92225 12.7737 8.8463 12.7586 8.77548 12.7292C8.70466 12.6997 8.64037 12.6565 8.58632 12.6021L5.22105 9.2379C5.11162 9.12846 5.05014 8.98003 5.05014 8.82527C5.05014 8.6705 5.11162 8.52207 5.22105 8.41264C5.33049 8.3032 5.47892 8.24172 5.63369 8.24172C5.78845 8.24172 5.93688 8.3032 6.04632 8.41264L9.41053 11.779C9.4922 11.8605 9.54782 11.9645 9.57037 12.0777C9.59292 12.1909 9.58137 12.3082 9.53719 12.4148C9.493 12.5215 9.41817 12.6126 9.32217 12.6766C9.22617 12.7407 9.11331 12.7749 8.9979 12.7747L8.99895 12.7737ZM16.7147 13.8179L12.0368 9.13895L13.1789 7.9979L9.83895 4.6579L6.71263 7.78422L10.0526 11.1232L11.2126 9.96422L15.8916 14.6432C15.9458 14.6974 16.0101 14.7403 16.0809 14.7697C16.1517 14.799 16.2276 14.8141 16.3042 14.8141C16.3808 14.8141 16.4567 14.799 16.5275 14.7697C16.5983 14.7403 16.6627 14.6974 16.7168 14.6432C16.771 14.589 16.814 14.5246 16.8433 14.4538C16.8727 14.383 16.8878 14.3072 16.8878 14.2305C16.8878 14.1539 16.8727 14.078 16.8433 14.0072C16.814 13.9364 16.771 13.8721 16.7168 13.8179H16.7147ZM14.2621 7.50948C14.1857 7.50953 14.11 7.49449 14.0393 7.46523C13.9687 7.43597 13.9045 7.39305 13.8505 7.33895L10.4842 3.97369C10.43 3.9195 10.387 3.85517 10.3577 3.78437C10.3284 3.71357 10.3133 3.63769 10.3133 3.56106C10.3133 3.48442 10.3284 3.40854 10.3577 3.33774C10.387 3.26694 10.43 3.20261 10.4842 3.14843C10.5384 3.09424 10.6027 3.05125 10.6735 3.02193C10.7443 2.9926 10.8202 2.97751 10.8968 2.97751C10.9735 2.97751 11.0494 2.9926 11.1202 3.02193C11.191 3.05125 11.2553 3.09424 11.3095 3.14843L14.6737 6.51369C14.7553 6.59518 14.8109 6.69905 14.8335 6.81214C14.8561 6.92524 14.8446 7.04249 14.8005 7.14907C14.7565 7.25566 14.6818 7.34679 14.586 7.41094C14.4901 7.47509 14.3774 7.50938 14.2621 7.50948Z" fill="#5B5B5B"/>
</g>
</svg>
