<svg width="20" height="20" viewBox="0 0 20 20" fill="none" xmlns="http://www.w3.org/2000/svg">
<g id="tractor_4oo51gxeo6wf 1">
<g id="Group">
<path id="Vector" d="M19.2812 12.7185C20.0382 10.9893 20.1924 9.83132 19.7667 9.07416C19.6026 8.78239 19.1915 8.29298 18.2821 8.29298H16.9884V5.44737C16.9884 4.72539 17.3645 4.59865 17.4031 4.58759C17.522 4.56706 17.5961 4.46109 17.5868 4.34026L17.5149 3.40444C17.5101 3.34243 17.4809 3.28473 17.4337 3.24427C17.3864 3.20375 17.3249 3.18385 17.2629 3.18846C16.681 3.23315 15.5805 3.76284 15.5805 5.44737V8.29298H11.6293L10.7906 2.60089C10.7397 2.25545 10.4434 1.99954 10.0942 1.99954H3.0611C2.67233 1.99954 2.35717 2.3147 2.35717 2.70347V4.08008C2.35717 4.43159 2.61483 4.72297 2.95163 4.77557V9.38525C1.23182 9.99548 0 11.6365 0 13.5655C0 16.0149 1.98553 18.0004 4.43485 18.0004C6.30999 18.0004 7.9133 16.8367 8.56196 15.192H14.1262C14.1261 15.1974 14.1258 15.2027 14.1258 15.2081C14.1258 16.7502 15.3759 18.0004 16.918 18.0004C18.4602 18.0004 19.7103 16.7502 19.7103 15.2081C19.7103 14.4899 19.439 13.8352 18.9935 13.3405C19.0895 13.1429 19.1868 12.9342 19.2812 12.7185ZM4.4348 15.654C3.28329 15.654 2.34645 14.7172 2.34645 13.5657C2.34645 12.4142 3.28329 11.4773 4.4348 11.4773C5.58631 11.4773 6.52315 12.4142 6.52315 13.5657C6.52315 14.7172 5.58636 15.654 4.4348 15.654ZM5.01417 8.26266V4.44435H8.94704L9.51918 8.26266H5.01417ZM16.918 16.1234C16.4134 16.1234 16.0029 15.7128 16.0029 15.2083C16.0029 14.7037 16.4134 14.2931 16.918 14.2931C17.4226 14.2931 17.8331 14.7037 17.8331 15.2083C17.8331 15.7128 17.4226 16.1234 16.918 16.1234Z" fill="#5B5B5B"/>
</g>
</g>
</svg>
