<svg width="20" height="20" viewBox="0 0 20 20" fill="none" xmlns="http://www.w3.org/2000/svg">
<g id="bus-svgrepo-com (1) 1">
<g id="Group">
<g id="Group_2">
<g id="Group_3">
<path id="Vector" d="M11.6665 6.66672H9.99982V9.16667H11.6665V6.66672Z" fill="#5B5B5B"/>
<path id="Vector_2" d="M19.8808 7.0712L19.6383 6.66702H16.6667V9.16698H20V7.50033C20 7.34869 19.9591 7.20119 19.8808 7.0712Z" fill="#5B5B5B"/>
<path id="Vector_3" d="M5.83326 6.66672H4.16661V9.16667H5.83326V6.66672Z" fill="#5B5B5B"/>
<path id="Vector_4" d="M14.9997 9.99997V5.83341C14.9997 5.37341 15.3722 5.0001 15.833 5.0001H18.638L17.623 3.30931V3.30849C17.3238 2.81018 16.7763 2.50018 16.1947 2.50018H1.66665C0.747487 2.5001 0 3.24759 0 4.16676V13.3333C0 14.2524 0.747487 14.9999 1.66665 14.9999C1.66665 16.3782 2.78831 17.4999 4.16661 17.4999C5.5449 17.4999 6.66656 16.3782 6.66656 14.9999H13.3331C13.3331 16.3782 14.4548 17.4999 15.8331 17.4999C17.2114 17.4999 18.333 16.3782 18.333 14.9999C19.2522 14.9999 19.9997 14.2524 19.9997 13.3333V10.8333H15.833C15.3722 10.8333 14.9997 10.46 14.9997 9.99997ZM4.16661 15.8332C3.70661 15.8332 3.3333 15.4591 3.3333 14.9999C3.3333 14.8166 3.40498 14.6549 3.5058 14.5174C3.82497 14.0916 4.50828 14.0916 4.82745 14.5174C4.92827 14.6549 4.99995 14.8166 4.99995 14.9999C4.99991 15.4591 4.6266 15.8332 4.16661 15.8332ZM7.49987 9.99997C7.49987 10.46 7.12738 10.8333 6.66656 10.8333H3.33326C2.87245 10.8333 2.49996 10.46 2.49996 9.99997V5.83341C2.49996 5.37341 2.87245 5.0001 3.33326 5.0001H6.66652C7.12734 5.0001 7.49983 5.37341 7.49983 5.83341V9.99997H7.49987ZM13.3331 9.99997C13.3331 10.46 12.9606 10.8333 12.4998 10.8333H9.16652C8.70571 10.8333 8.33321 10.46 8.33321 9.99997V5.83341C8.33321 5.37341 8.70571 5.0001 9.16652 5.0001H12.4998C12.9606 5.0001 13.3331 5.37341 13.3331 5.83341V9.99997ZM16.4939 14.5174C16.5947 14.6549 16.6664 14.8166 16.6664 14.9999C16.6664 15.4591 16.2931 15.8332 15.8331 15.8332C15.3731 15.8332 14.9997 15.4591 14.9997 14.9999C14.9997 14.8166 15.0714 14.6549 15.1722 14.5174C15.4914 14.0916 16.1747 14.0916 16.4939 14.5174Z" fill="#5B5B5B"/>
</g>
</g>
</g>
</g>
</svg>
