<svg width="20" height="20" viewBox="0 0 20 20" fill="none" xmlns="http://www.w3.org/2000/svg">
<g id="aeroplane_ndrd4ncgb7to 1" clip-path="url(#clip0_14049_145)">
<g id="Group">
<g id="Group_2">
<path id="Vector" d="M13.1587 0.013092H10.0001H9.99975H6.84134C6.50369 0.013092 6.2299 0.286843 6.2299 0.624539C6.2299 0.962235 6.50369 1.23599 6.84134 1.23599H8.58545C8.4299 1.39892 8.284 1.54974 8.17431 1.65946C8.05451 1.77927 7.98982 1.94345 7.99556 2.11274C8.00791 2.47325 8.02049 2.83489 8.03338 3.20064H11.9666C11.9797 2.82833 11.9923 2.46665 12.0044 2.11274C12.0102 1.94341 11.9455 1.77923 11.8256 1.65946C11.7208 1.55462 11.574 1.40251 11.4151 1.23599H13.1587C13.4963 1.23599 13.7701 0.962235 13.7701 0.624539C13.7701 0.286843 13.4963 0.013092 13.1587 0.013092Z" fill="#5B5B5B"/>
</g>
</g>
<g id="Group_3">
<g id="Group_4">
<path id="Vector_2" d="M19.3886 4.42355H0.611447C0.273711 4.42355 0 4.6973 0 5.035V8.61579C0 8.95348 0.273711 9.22723 0.611447 9.22723H8.25787C8.27756 9.73641 8.29724 10.2441 8.31697 10.751C8.35998 11.8574 8.40349 12.9795 8.44736 14.1322H11.5526C11.5969 12.9672 11.6409 11.8335 11.6844 10.7158C11.7037 10.2206 11.7229 9.72466 11.7422 9.22716H19.3886C19.7262 9.22716 20 8.95341 20 8.61571V5.03492C20 4.69726 19.7262 4.42355 19.3886 4.42355Z" fill="#5B5B5B"/>
</g>
</g>
<g id="Group_5">
<g id="Group_6">
<path id="Vector_3" d="M14.1048 15.355H5.89524C5.55751 15.355 5.2838 15.6288 5.2838 15.9665V17.524C5.2838 17.8616 5.55751 18.1354 5.89524 18.1354H8.5947C8.60935 18.5504 8.624 18.9701 8.63865 19.3965C8.6499 19.7258 8.92017 19.987 9.2497 19.987H10.7503C11.0798 19.987 11.35 19.7258 11.3613 19.3965C11.376 18.9702 11.3906 18.5504 11.4053 18.1354H14.1048C14.4424 18.1354 14.7163 17.8617 14.7163 17.524V15.9665C14.7162 15.6288 14.4424 15.355 14.1048 15.355Z" fill="#5B5B5B"/>
</g>
</g>
</g>
<defs>
<clipPath id="clip0_14049_145">
<rect width="20" height="20" fill="white"/>
</clipPath>
</defs>
</svg>
