<svg width="20" height="20" viewBox="0 0 20 20" fill="none" xmlns="http://www.w3.org/2000/svg">
<g id="asic_41hqw2b1ghfc 1" clip-path="url(#clip0_14047_85)">
<path id="Vector" d="M1.71875 5.72266H1.25C0.560742 5.72266 0 6.2834 0 6.97266V16.7383C0 17.4275 0.560742 17.9883 1.25 17.9883H1.71875C1.89133 17.9883 2.03125 17.8484 2.03125 17.6758V6.03516C2.03125 5.86258 1.89133 5.72266 1.71875 5.72266Z" fill="#5B5B5B"/>
<path id="Vector_2" d="M18.75 5.72266H18.2812C18.1087 5.72266 17.9688 5.86258 17.9688 6.03516V17.6758C17.9688 17.8484 18.1087 17.9883 18.2812 17.9883H18.75C19.4393 17.9883 20 17.4275 20 16.7383V6.97266C20 6.2834 19.4393 5.72266 18.75 5.72266Z" fill="#5B5B5B"/>
<path id="Vector_3" d="M14.2578 0.957031H5.74219C5.22523 0.957031 4.80469 1.37758 4.80469 1.89453V3.69141C4.80469 3.86398 4.94461 4.00391 5.11719 4.00391H14.8828C15.0554 4.00391 15.1953 3.86398 15.1953 3.69141V1.89453C15.1953 1.37758 14.7748 0.957031 14.2578 0.957031ZM12.3047 2.59766H12.1875C12.0149 2.59766 11.875 2.45773 11.875 2.28516C11.875 2.11258 12.0149 1.97266 12.1875 1.97266H12.3047C12.4773 1.97266 12.6172 2.11258 12.6172 2.28516C12.6172 2.45773 12.4773 2.59766 12.3047 2.59766ZM12.6172 3.30078C12.6172 3.47336 12.4773 3.61328 12.3047 3.61328H12.1875C12.0149 3.61328 11.875 3.47336 11.875 3.30078C11.875 3.1282 12.0149 2.98828 12.1875 2.98828H12.3047C12.4773 2.98828 12.6172 3.1282 12.6172 3.30078ZM10.8203 2.51953V3.06641C10.8203 3.19586 10.7154 3.30078 10.5859 3.30078H9.41406C9.28461 3.30078 9.17969 3.19586 9.17969 3.06641V2.51953C9.17969 2.39008 9.28461 2.28516 9.41406 2.28516H10.5859C10.7154 2.28516 10.8203 2.39008 10.8203 2.51953ZM7.8125 2.59766H7.69531C7.52273 2.59766 7.38281 2.45773 7.38281 2.28516C7.38281 2.11258 7.52273 1.97266 7.69531 1.97266H7.8125C7.98508 1.97266 8.125 2.11258 8.125 2.28516C8.125 2.45773 7.98508 2.59766 7.8125 2.59766ZM8.125 3.30078C8.125 3.47336 7.98508 3.61328 7.8125 3.61328H7.69531C7.52273 3.61328 7.38281 3.47336 7.38281 3.30078C7.38281 3.1282 7.52273 2.98828 7.69531 2.98828H7.8125C7.98508 2.98828 8.125 3.1282 8.125 3.30078Z" fill="#5B5B5B"/>
<path id="Vector_4" d="M11.6439 9.76961C10.6818 9.00864 9.31852 9.0084 8.35609 9.76961L10 11.4136L11.6439 9.76961Z" fill="#5B5B5B"/>
<path id="Vector_5" d="M11.6439 13.9413L10 12.2974L8.35609 13.9413C9.31809 14.7022 10.6814 14.7026 11.6439 13.9413Z" fill="#5B5B5B"/>
<path id="Vector_6" d="M12.0886 9.3249L13.3907 8.02287C11.4593 6.30962 8.54277 6.30787 6.60938 8.02287L7.91141 9.3249C9.12109 8.32333 10.8789 8.32322 12.0886 9.3249Z" fill="#5B5B5B"/>
<path id="Vector_7" d="M7.91414 13.4994L9.55805 11.8555L7.91414 10.2115C7.15325 11.1735 7.15293 12.5369 7.91414 13.4994Z" fill="#5B5B5B"/>
<path id="Vector_8" d="M12.0859 10.2115L10.4419 11.8555L12.0858 13.4994C12.8468 12.5374 12.8471 11.174 12.0859 10.2115Z" fill="#5B5B5B"/>
<path id="Vector_9" d="M7.91137 14.386L6.60934 15.6881C8.54074 17.4013 11.4573 17.4031 13.3907 15.6881L12.0886 14.386C10.8789 15.3876 9.12113 15.3877 7.91137 14.386Z" fill="#5B5B5B"/>
<path id="Vector_10" d="M7.46945 9.76684L6.16742 8.46481C4.45422 10.3962 4.45242 13.3127 6.16742 15.2461L7.46945 13.9441C6.46785 12.7344 6.46773 10.9766 7.46945 9.76684Z" fill="#5B5B5B"/>
<path id="Vector_11" d="M16.7188 4.66797H3.28125C3.02238 4.66797 2.8125 4.87785 2.8125 5.13672V18.5742C2.8125 18.8331 3.02238 19.043 3.28125 19.043H16.7188C16.9776 19.043 17.1875 18.8331 17.1875 18.5742V5.13672C17.1875 4.87785 16.9776 4.66797 16.7188 4.66797ZM14.8499 16.2634C15.0473 16.4608 14.9048 16.7969 14.6289 16.7969C14.4655 16.7969 14.4581 16.7555 13.8334 16.1308C11.6564 18.0875 8.34492 18.0887 6.1666 16.1308C5.55719 16.7402 5.54188 16.7969 5.37109 16.7969C5.09523 16.7969 4.95266 16.4609 5.15012 16.2634L5.72465 15.6889C3.76793 13.5119 3.76672 10.2004 5.72465 8.02207L5.15012 7.44754C5.02805 7.32551 5.02805 7.12766 5.15012 7.00562C5.27215 6.88355 5.47 6.88355 5.59203 7.00562L6.16656 7.58016C8.34352 5.62344 11.655 5.62223 13.8334 7.58016L14.4079 7.00562C14.5299 6.88355 14.7278 6.88355 14.8498 7.00562C14.9719 7.12766 14.9719 7.32551 14.8498 7.44754L14.2753 8.02207C16.232 10.1991 16.2332 13.5105 14.2753 15.6889L14.8499 16.2634Z" fill="#5B5B5B"/>
<path id="Vector_12" d="M13.8326 8.46481L12.5305 9.76684C13.5323 10.9766 13.5321 12.7345 12.5305 13.9441L13.8326 15.2461C15.5458 13.3147 15.5476 10.3983 13.8326 8.46481Z" fill="#5B5B5B"/>
</g>
<defs>
<clipPath id="clip0_14047_85">
<rect width="20" height="20" fill="white"/>
</clipPath>
</defs>
</svg>
