<svg width="20" height="20" viewBox="0 0 20 20" fill="none" xmlns="http://www.w3.org/2000/svg">
<g id="train_hvuvckcqkaqa 1" clip-path="url(#clip0_14049_165)">
<g id="Group">
<g id="Group_2">
<path id="Vector" d="M20 13.4782V11.5217C20 9.60637 19.2542 7.8059 17.9011 6.45273C16.5487 5.09531 14.7463 4.34781 12.8261 4.34781H6.52176V3.26086C6.52176 1.46273 5.05898 0 3.26086 0C1.45035 0 0 1.46512 0 3.26086C0 8.63934 0 13.9846 0 19.3478C0 19.7081 0.291914 20 0.652187 20C10.508 20 9.50062 20 19.3479 20C19.7081 20 20 19.7081 20 19.3478C20 18.9875 19.7081 18.6956 19.3479 18.6956H15.9668C16.0399 18.4906 16.087 18.2732 16.087 18.0434C16.087 17.8136 16.0399 17.5963 15.9668 17.3913H18.0435C19.1223 17.3913 20 16.5136 20 15.4347V14.7825H1.30434V13.4782H20V13.4782ZM13.4782 5.68762C14.8017 5.83285 16.0258 6.41875 16.9779 7.3741C17.9305 8.32668 18.515 9.54926 18.66 10.8696H15.4348C14.3559 10.8696 13.4782 9.99191 13.4782 8.91305V5.68762ZM8.91305 8.26086C9.27266 8.26086 9.56523 8.55344 9.56523 8.91305V10.2174C9.56523 10.577 9.27266 10.8696 8.91305 10.8696H5.21738V8.26086H8.91305ZM1.30434 3.26086C1.30434 2.18691 2.17258 1.30434 3.26086 1.30434C4.33973 1.30434 5.21738 2.18199 5.21738 3.26086V4.34781H1.30434V3.26086ZM1.30434 8.26086H3.91305V10.8696H1.30434V8.26086ZM14.1304 17.3913C14.49 17.3913 14.7826 17.6839 14.7826 18.0435C14.7826 18.4031 14.49 18.6957 14.1304 18.6957C13.7708 18.6957 13.4782 18.4031 13.4782 18.0435C13.4782 17.6839 13.7708 17.3913 14.1304 17.3913ZM11.5218 17.3913C11.8814 17.3913 12.1739 17.6839 12.1739 18.0435C12.1739 18.4031 11.8814 18.6957 11.5218 18.6957C11.1621 18.6957 10.8696 18.4031 10.8696 18.0435C10.8696 17.6839 11.1621 17.3913 11.5218 17.3913ZM6.52176 17.387H9.68543C9.61234 17.592 9.56527 17.8137 9.56527 18.0435C9.56527 18.2733 9.61234 18.4907 9.68543 18.6957H6.52176V17.387ZM5.21738 17.3913V18.6956H1.30434V17.3913H5.21738Z" fill="#5B5B5B"/>
</g>
</g>
</g>
<defs>
<clipPath id="clip0_14049_165">
<rect width="20" height="20" fill="white"/>
</clipPath>
</defs>
</svg>
