<svg width="20" height="20" viewBox="0 0 20 20" fill="none" xmlns="http://www.w3.org/2000/svg">
<g id="up-trend-round-svgrepo-com (1) 1">
<path id="primary" d="M17.5 5.83334L11.8417 11.4917C11.7642 11.5698 11.672 11.6318 11.5705 11.6741C11.4689 11.7164 11.36 11.7382 11.25 11.7382C11.14 11.7382 11.0311 11.7164 10.9295 11.6741C10.828 11.6318 10.7358 11.5698 10.6583 11.4917L8.50833 9.34168C8.43086 9.26357 8.3387 9.20157 8.23715 9.15927C8.1356 9.11696 8.02668 9.09518 7.91667 9.09518C7.80666 9.09518 7.69774 9.11696 7.59619 9.15927C7.49464 9.20157 7.40247 9.26357 7.325 9.34168L2.5 14.1667" stroke="#5B5B5B" stroke-width="2" stroke-linecap="round" stroke-linejoin="round"/>
<path id="primary_2" d="M17.5 9.16668V5.83334H14.1667" stroke="#5B5B5B" stroke-width="2" stroke-linecap="round" stroke-linejoin="round"/>
</g>
</svg>
