<svg width="20" height="20" viewBox="0 0 20 20" fill="none" xmlns="http://www.w3.org/2000/svg">
<g id="car-svgrepo-com (5) 1" clip-path="url(#clip0_14047_101)">
<path id="Vector" d="M13.3333 5L15.8333 8.33333H17.5C18.425 8.33333 19.1667 9.075 19.1667 10V12.5H17.5C17.5 13.8833 16.3833 15 15 15C13.6167 15 12.5 13.8833 12.5 12.5H7.50001C7.50001 13.8833 6.38334 15 5.00001 15C3.61668 15 2.50001 13.8833 2.50001 12.5H0.833344V10C0.833344 9.075 1.57501 8.33333 2.50001 8.33333L5.00001 5H13.3333ZM8.75001 6.25H5.62501L4.05001 8.33333H8.75001V6.25ZM10 6.25V8.33333H14.2833L12.7083 6.25H10ZM5.00001 11.25C4.30834 11.25 3.75001 11.8083 3.75001 12.5C3.75001 13.1917 4.30834 13.75 5.00001 13.75C5.69168 13.75 6.25001 13.1917 6.25001 12.5C6.25001 11.8083 5.69168 11.25 5.00001 11.25ZM15 11.25C14.3083 11.25 13.75 11.8083 13.75 12.5C13.75 13.1917 14.3083 13.75 15 13.75C15.6917 13.75 16.25 13.1917 16.25 12.5C16.25 11.8083 15.6917 11.25 15 11.25Z" fill="#5B5B5B"/>
</g>
<defs>
<clipPath id="clip0_14047_101">
<rect width="20" height="20" fill="white"/>
</clipPath>
</defs>
</svg>
