<svg width="20" height="20" viewBox="0 0 20 20" fill="none" xmlns="http://www.w3.org/2000/svg">
<g id="tram_la92qml9sr6d 1">
<path id="Vector" d="M10.5859 9.4281H13.7109V11.3812H10.5859V9.4281Z" fill="#5B5B5B"/>
<path id="Vector_2" d="M1.51047 8.25623H18.4895L18.1989 7.00623H19.2188V5.83435H0.78125V7.00623H1.80115L1.51047 8.25623Z" fill="#5B5B5B"/>
<path id="Vector_3" d="M8.37921 4.66248L8.11905 4.40231L10 3.07495L11.881 4.40231L11.6208 4.66248H13.2782L13.6935 4.24713L10 1.64062L6.30646 4.24713L6.7218 4.66248H8.37921Z" fill="#5B5B5B"/>
<path id="Vector_4" d="M14.8828 11.3812H19.2162L18.7621 9.4281H14.8828V11.3812Z" fill="#5B5B5B"/>
<path id="Vector_5" d="M6.28906 9.4281H9.41406V11.3812H6.28906V9.4281Z" fill="#5B5B5B"/>
<path id="Vector_6" d="M19.2188 14.4281V12.5531H0.78125V14.4281H0V15.6H20V14.4281H19.2188Z" fill="#5B5B5B"/>
<path id="Vector_7" d="M0.783844 11.3812H5.11719V9.4281H1.23795L0.783844 11.3812Z" fill="#5B5B5B"/>
<path id="Vector_8" d="M15.8594 18.3344C16.8025 18.3344 17.5917 17.6622 17.7731 16.7719H13.9456C14.127 17.6622 14.9162 18.3344 15.8594 18.3344Z" fill="#5B5B5B"/>
<path id="Vector_9" d="M4.14062 18.3344C5.08377 18.3344 5.87296 17.6622 6.05438 16.7719H2.22687C2.40829 17.6622 3.19748 18.3344 4.14062 18.3344Z" fill="#5B5B5B"/>
</g>
</svg>
