<svg width="20" height="20" viewBox="0 0 20 20" fill="none" xmlns="http://www.w3.org/2000/svg">
<g id="truck-front-svgrepo-com 1">
<path id="Vector" d="M15.5028 14.5417V12.3361C15.5028 12.2234 15.4806 12.1118 15.4374 12.0076C15.3943 11.9035 15.3311 11.8089 15.2514 11.7292C15.1717 11.6495 15.0771 11.5862 14.9729 11.5431C14.8688 11.5 14.7572 11.4778 14.6444 11.4778H14.4194V3.42221C14.4192 3.38676 14.4106 3.35188 14.3941 3.32047C14.3777 3.28906 14.354 3.26203 14.325 3.24165L13.7694 2.88332C13.7378 2.86467 13.702 2.85448 13.6653 2.8537C13.6286 2.85293 13.5923 2.86161 13.56 2.87891C13.5276 2.89621 13.5002 2.92154 13.4805 2.95247C13.4607 2.98341 13.4493 3.0189 13.4472 3.05554V5.64443L13.2833 5.20554C13.1764 4.91811 12.9842 4.6702 12.7326 4.49497C12.4809 4.31973 12.1817 4.22554 11.875 4.22499H8.12223C7.81371 4.22543 7.51274 4.32048 7.25992 4.4973C7.0071 4.67413 6.81459 4.92423 6.70834 5.21387L6.55278 5.64443V3.05554C6.55252 3.01715 6.54192 2.97955 6.52212 2.94667C6.50231 2.91378 6.47402 2.88684 6.44021 2.86865C6.4064 2.85047 6.36832 2.84172 6.32997 2.84333C6.29162 2.84493 6.2544 2.85682 6.22223 2.87776L5.66667 3.2361C5.63767 3.25648 5.61396 3.2835 5.59753 3.31491C5.58111 3.34632 5.57243 3.38121 5.57223 3.41665V11.4722H5.34723C5.23451 11.4722 5.1229 11.4944 5.01876 11.5375C4.91462 11.5807 4.82 11.6439 4.74029 11.7236C4.66059 11.8033 4.59737 11.8979 4.55423 12.0021C4.5111 12.1062 4.48889 12.2178 4.48889 12.3305V14.5361H4.13056C4.07383 14.5361 4.01943 14.5586 3.97932 14.5987C3.93921 14.6389 3.91667 14.6933 3.91667 14.75V15.9444C3.91667 15.9725 3.9222 16.0003 3.93295 16.0263C3.9437 16.0522 3.95946 16.0758 3.97932 16.0957C3.99918 16.1155 4.02276 16.1313 4.04871 16.142C4.07466 16.1528 4.10247 16.1583 4.13056 16.1583H5.05556V16.7139C5.05629 16.8276 5.10198 16.9364 5.18265 17.0165C5.26331 17.0967 5.37241 17.1417 5.48612 17.1417H6.62501C6.73846 17.1417 6.84727 17.0966 6.92749 17.0164C7.00771 16.9361 7.05278 16.8273 7.05278 16.7139V16.1583H12.9472V16.7139C12.9472 16.8273 12.9923 16.9361 13.0725 17.0164C13.1527 17.0966 13.2616 17.1417 13.375 17.1417H14.5139C14.6276 17.1417 14.7367 17.0967 14.8174 17.0165C14.898 16.9364 14.9437 16.8276 14.9444 16.7139V16.1583H15.8694C15.8975 16.1583 15.9254 16.1528 15.9513 16.142C15.9773 16.1313 16.0008 16.1155 16.0207 16.0957C16.0406 16.0758 16.0563 16.0522 16.0671 16.0263C16.0778 16.0003 16.0833 15.9725 16.0833 15.9444V14.7555C16.0833 14.6988 16.0608 14.6444 16.0207 14.6043C15.9806 14.5642 15.9262 14.5417 15.8694 14.5417H15.5028ZM6.83889 6.84165H13.1611V8.95832H6.83889V6.84165ZM6.69167 13.9417H5.95834C5.85126 13.9409 5.74882 13.8979 5.67336 13.8219C5.5979 13.7459 5.55556 13.6432 5.55556 13.5361C5.55556 13.4285 5.59829 13.3254 5.67434 13.2493C5.7504 13.1733 5.85356 13.1305 5.96112 13.1305H6.69445C6.80201 13.1305 6.90516 13.1733 6.98122 13.2493C7.05728 13.3254 7.1 13.4285 7.1 13.5361C7.10001 13.5896 7.08942 13.6426 7.06887 13.6919C7.04832 13.7413 7.01819 13.7862 6.98024 13.8239C6.94229 13.8616 6.89725 13.8914 6.84772 13.9116C6.7982 13.9318 6.74516 13.942 6.69167 13.9417ZM11.4583 14.0611H8.54167C8.48503 14.0615 8.42887 14.0506 8.37647 14.0291C8.32407 14.0076 8.27645 13.9759 8.2364 13.9358C8.19635 13.8958 8.16465 13.8481 8.14314 13.7957C8.12163 13.7433 8.11075 13.6872 8.11112 13.6305V10.9111C8.11111 10.8547 8.12227 10.7988 8.14394 10.7467C8.16561 10.6947 8.19737 10.6474 8.23739 10.6076C8.27741 10.5679 8.32489 10.5364 8.37711 10.5151C8.42934 10.4937 8.48526 10.483 8.54167 10.4833H11.4583C11.5147 10.483 11.5707 10.4937 11.6229 10.5151C11.6751 10.5364 11.7226 10.5679 11.7626 10.6076C11.8026 10.6474 11.8344 10.6947 11.8561 10.7467C11.8777 10.7988 11.8889 10.8547 11.8889 10.9111V13.6305C11.8893 13.6872 11.8784 13.7433 11.8569 13.7957C11.8354 13.8481 11.8037 13.8958 11.7636 13.9358C11.7236 13.9759 11.6759 14.0076 11.6235 14.0291C11.5711 14.0506 11.515 14.0615 11.4583 14.0611ZM14.0417 13.9417H13.3083C13.2008 13.9417 13.0976 13.8989 13.0216 13.8229C12.9455 13.7468 12.9028 13.6437 12.9028 13.5361C12.9028 13.4285 12.9455 13.3254 13.0216 13.2493C13.0976 13.1733 13.2008 13.1305 13.3083 13.1305H14.0417C14.1469 13.1312 14.2477 13.1727 14.3228 13.2463C14.398 13.3199 14.4416 13.4198 14.4444 13.525C14.4459 13.5789 14.4366 13.6326 14.4171 13.683C14.3975 13.7333 14.3681 13.7792 14.3306 13.818C14.2931 13.8568 14.2482 13.8877 14.1986 13.9089C14.149 13.9302 14.0956 13.9413 14.0417 13.9417ZM11.3889 12.0528H8.61112C8.58316 12.0531 8.55541 12.0479 8.52947 12.0375C8.50354 12.0271 8.47994 12.0116 8.46004 11.9919C8.44014 11.9723 8.42434 11.9489 8.41356 11.9231C8.40278 11.8973 8.39722 11.8696 8.39723 11.8417C8.39722 11.8137 8.40278 11.786 8.41356 11.7602C8.42434 11.7344 8.44014 11.711 8.46004 11.6914C8.47994 11.6717 8.50354 11.6563 8.52947 11.6458C8.55541 11.6354 8.58316 11.6302 8.61112 11.6305H11.3889C11.4449 11.6305 11.4986 11.6528 11.5382 11.6924C11.5778 11.732 11.6 11.7857 11.6 11.8417C11.6 11.8976 11.5778 11.9513 11.5382 11.9909C11.4986 12.0305 11.4449 12.0528 11.3889 12.0528ZM11.3889 11.1944H8.61112C8.58316 11.1948 8.55541 11.1896 8.52947 11.1792C8.50354 11.1687 8.47994 11.1532 8.46004 11.1336C8.44014 11.1139 8.42434 11.0906 8.41356 11.0648C8.40278 11.039 8.39722 11.0113 8.39723 10.9833C8.39722 10.9554 8.40278 10.9277 8.41356 10.9019C8.42434 10.8761 8.44014 10.8527 8.46004 10.8331C8.47994 10.8134 8.50354 10.7979 8.52947 10.7875C8.55541 10.777 8.58316 10.7718 8.61112 10.7722H11.3889C11.4449 10.7722 11.4986 10.7945 11.5382 10.834C11.5778 10.8736 11.6 10.9273 11.6 10.9833C11.6 11.0393 11.5778 11.093 11.5382 11.1326C11.4986 11.1722 11.4449 11.1944 11.3889 11.1944ZM11.3889 13.7694H8.61112C8.58316 13.7698 8.55541 13.7646 8.52947 13.7542C8.50354 13.7437 8.47994 13.7282 8.46004 13.7086C8.44014 13.6889 8.42434 13.6656 8.41356 13.6398C8.40278 13.614 8.39722 13.5863 8.39723 13.5583C8.3953 13.5292 8.39943 13.5 8.40936 13.4726C8.41928 13.4452 8.43477 13.4201 8.45487 13.399C8.47497 13.3778 8.49923 13.3611 8.52612 13.3498C8.55301 13.3385 8.58195 13.3329 8.61112 13.3333H11.3889C11.4449 13.3333 11.4986 13.3556 11.5382 13.3952C11.5778 13.4347 11.6 13.4884 11.6 13.5444C11.6019 13.5733 11.5979 13.6023 11.5881 13.6295C11.5783 13.6567 11.5631 13.6817 11.5433 13.7028C11.5235 13.7239 11.4996 13.7407 11.473 13.7521C11.4465 13.7636 11.4178 13.7695 11.3889 13.7694ZM11.3889 12.9111H8.61112C8.58316 12.9115 8.55541 12.9063 8.52947 12.8958C8.50354 12.8854 8.47994 12.8699 8.46004 12.8503C8.44014 12.8306 8.42434 12.8072 8.41356 12.7814C8.40278 12.7556 8.39722 12.7279 8.39723 12.7C8.39722 12.672 8.40278 12.6443 8.41356 12.6185C8.42434 12.5928 8.44014 12.5694 8.46004 12.5497C8.47994 12.5301 8.50354 12.5146 8.52947 12.5041C8.55541 12.4937 8.58316 12.4885 8.61112 12.4889H11.3889C11.4449 12.4889 11.4986 12.5111 11.5382 12.5507C11.5778 12.5903 11.6 12.644 11.6 12.7C11.6 12.756 11.5778 12.8097 11.5382 12.8493C11.4986 12.8889 11.4449 12.9111 11.3889 12.9111Z" fill="#5B5B5B"/>
</g>
</svg>
