<svg width="40" height="54" viewBox="0 0 40 54" fill="none" xmlns="http://www.w3.org/2000/svg">
<g id="Vector">
<path d="M17.0443 1.17157C18.6063 -0.390523 21.139 -0.390523 22.7011 1.17157L26.1231 4.59354C26.529 4.99936 27.1489 5.09996 27.6622 4.8433L28.6098 4.36953C30.6563 3.34626 32.9183 5.30814 32.1948 7.47882L29.9128 14.827C29.9128 14.827 26.2063 12 19.9128 12C13.6192 12 10 14.827 10 14.827L7.55061 7.47882C6.82705 5.30816 9.08913 3.34626 11.1357 4.36953L12.0832 4.8433C12.5965 5.09996 13.2165 4.99936 13.6223 4.59354L17.0443 1.17157Z" fill="url(#paint0_linear_13519_55)"/>
<path d="M0 34C0 22.9543 8.95431 14 20 14C31.0457 14 40 22.9543 40 34C40 45.0457 31.0457 54 20 54C8.95431 54 0 45.0457 0 34Z" fill="url(#paint1_linear_13519_55)"/>
</g>
<defs>
<linearGradient id="paint0_linear_13519_55" x1="16.0584" y1="-66.2728" x2="85.2568" y2="-10.4583" gradientUnits="userSpaceOnUse">
<stop stop-color="#B4B4B4"/>
<stop offset="1" stop-color="#5E5E5E"/>
</linearGradient>
<linearGradient id="paint1_linear_13519_55" x1="16.0584" y1="-66.2728" x2="85.2568" y2="-10.4583" gradientUnits="userSpaceOnUse">
<stop stop-color="#B4B4B4"/>
<stop offset="1" stop-color="#5E5E5E"/>
</linearGradient>
</defs>
</svg>
